<?xml version="1.0" encoding="UTF-8"?>
<svg version="1.1" xmlns="http://www.w3.org/2000/svg" width="290" height="290">
<path d="M0 0 C7.3909775 -0.6426937 13.72918072 1.35915362 19.53515625 6.046875 C21.08137116 7.46486721 22.60231018 8.91119053 24.08984375 10.390625 C25.96608182 12.32216418 25.96608182 12.32216418 29 12 C30.75 14.3125 30.75 14.3125 32 17 C31.505 18.485 31.505 18.485 31 20 C31.6413701 21.67656393 32.31165998 23.342167 33 25 C34.87890662 35.84917047 33.79160764 44.28358665 27.82421875 53.57421875 C22.48474087 60.67446663 15.80217339 66.12719715 7 68 C-5.60222344 69.21957001 -14.24548577 67.32205302 -24.21875 59.3671875 C-26.07859653 57.85847718 -26.07859653 57.85847718 -28.75 56.5625 C-32.13778465 54.20987177 -33.28695747 51.75551631 -35 48 C-34.6875 45.8125 -34.6875 45.8125 -34 44 C-34.144375 43.42894531 -34.28875 42.85789063 -34.4375 42.26953125 C-36.57311206 33.6529298 -35.43614026 24.64949826 -31 17 C-29.43847776 14.99362549 -27.99222236 13.61531543 -26 12 C-25.67 12 -25.34 12 -25 12 C-24.82984375 12.61488281 -24.6596875 13.22976562 -24.484375 13.86328125 C-23.05093751 18.81403451 -23.05093751 18.81403451 -20.1875 23 C-15.251174 25.25660617 -10.57702855 25.56322448 -5.5 23.75 C-2.09625955 22.04812977 -0.84679008 21.20758278 1 18 C1.36222656 17.39542969 1.72445312 16.79085937 2.09765625 16.16796875 C3.18265018 13.56116515 3.03272008 12.02249658 2.625 9.25 C2.51414063 8.45078125 2.40328125 7.6515625 2.2890625 6.828125 C2.19367188 6.22484375 2.09828125 5.6215625 2 5 C1.01 4.67 0.02 4.34 -1 4 C-0.67 2.68 -0.34 1.36 0 0 Z M29 16 C30 18 30 18 30 18 Z M-1 34 C-3.28728734 35.83883881 -3.28728734 35.83883881 -3.125 38.625 C-3.08375 39.40875 -3.0425 40.1925 -3 41 C-0.67145537 42.19838209 -0.67145537 42.19838209 2 43 C2.99 42.34 3.98 41.68 5 41 C4.42415568 38.61435923 3.77772405 36.33317216 3 34 C1.68 34 0.36 34 -1 34 Z M-33 47 C-32 49 -32 49 -32 49 Z M-32 49 C-31 51 -31 51 -31 51 Z " fill="#FFFFFF" transform="translate(176,60)"/>
<path d="M0 0 C9.42379557 7.79459701 16.46463196 18.99321804 17.77783203 31.31201172 C18.82628707 46.43408574 15.57715105 59.53646641 5.7421875 71.40625 C-3.47051994 81.21332566 -15.53145889 87.11490108 -28.99560547 87.74291992 C-43.67143298 87.98489691 -55.63675508 83.3056911 -66.4453125 73.21875 C-76.25086559 62.33638077 -80.75218799 49.98306654 -80.6796875 35.46484375 C-80.36039303 31.04261531 -79.32114492 26.96644356 -78.1015625 22.71484375 C-77.3181776 20.16533667 -77.3181776 20.16533667 -77.4453125 17.21875 C-75.54657982 11.0478688 -71.06277973 7.80294026 -66.28515625 3.79296875 C-65.1054551 2.78358539 -63.94883347 1.74619767 -62.82421875 0.67578125 C-44.98424533 -15.96630427 -18.71605165 -13.63341781 0 0 Z M-61.40625 8.984375 C-64.80420153 12.70780081 -67.22879259 16.70756364 -69.4453125 21.21875 C-69.785625 21.90324219 -70.1259375 22.58773437 -70.4765625 23.29296875 C-74.0481635 31.97394339 -73.77817568 43.35691643 -70.8203125 52.15625 C-66.11910544 63.09843228 -58.54943871 72.53550045 -47.46484375 77.4765625 C-35.56204551 81.85089841 -24.10134955 81.11283761 -12.4453125 76.21875 C-2.00521907 70.59828129 5.6376127 61.38669936 9.23828125 50.0703125 C12.12135702 38.73684223 10.69557614 27.92193736 5.12890625 17.56640625 C-1.02164469 8.01477546 -10.16938397 -0.08137979 -21.4453125 -2.78125 C-36.83740979 -5.3754237 -49.9872971 -1.74863373 -61.40625 8.984375 Z M-75.4453125 14.21875 C-74.4453125 16.21875 -74.4453125 16.21875 -74.4453125 16.21875 Z " fill="#FFFFFF" transform="translate(206.4453125,55.78125)"/>
<path d="M0 0 C1.9375 0.8125 1.9375 0.8125 4 2 C4.495 3.485 4.495 3.485 5 5 C5.66 4.34 6.32 3.68 7 3 C6.8125 4.8125 6.8125 4.8125 6 7 C5.24332031 7.43957031 4.48664063 7.87914062 3.70703125 8.33203125 C0.69605099 10.18728172 -0.96584457 12.08926613 -3.125 14.875 C-3.78757812 15.71804687 -4.45015625 16.56109375 -5.1328125 17.4296875 C-8.43499795 21.97537374 -10.34433327 25.36126614 -11 31 C-11.66 31 -12.32 31 -13 31 C-14.76793751 36.00359671 -16.1457532 40.75248394 -17 46 C-17.32742187 46.58007812 -17.65484375 47.16015625 -17.9921875 47.7578125 C-19.32316453 50.71897845 -19.38962374 53.32934607 -19.5625 56.5625 C-19.75337238 59.9943074 -19.91162533 62.73487598 -21 66 C-21.06970052 68.39490986 -21.08448003 70.79167691 -21.0625 73.1875 C-21.05347656 74.45980469 -21.04445313 75.73210937 -21.03515625 77.04296875 C-21.02355469 78.01878906 -21.01195313 78.99460937 -21 80 C-20.67 80 -20.34 80 -20 80 C-20.020625 81.0725 -20.04125 82.145 -20.0625 83.25 C-20.01302021 86.21878717 -19.83120352 88.22932159 -19 91 C-18.855625 91.845625 -18.71125 92.69125 -18.5625 93.5625 C-18.09614574 96.238632 -18.09614574 96.238632 -16 99 C-15.46083854 101.6602023 -15.26629902 104.29262663 -15 107 C-14.34 107 -13.68 107 -13 107 C-11.70768774 109.41632339 -10.41612809 111.83304396 -9.125 114.25 C-8.76019531 114.93191406 -8.39539063 115.61382812 -8.01953125 116.31640625 C-3.87037398 124.08664622 -3.87037398 124.08664622 -2.07421875 128.03515625 C-0.89561655 130.19092682 0.47877974 131.68007513 2.1875 133.4375 C4.99162422 136.63146589 4.99162422 136.63146589 5.0625 139.75 C3.97542969 142.05203125 2.82564667 143.26886909 1 145 C0.40832031 144.26394531 -0.18335937 143.52789062 -0.79296875 142.76953125 C-1.58316406 141.79371094 -2.37335938 140.81789062 -3.1875 139.8125 C-3.96480469 138.84957031 -4.74210937 137.88664063 -5.54296875 136.89453125 C-8.55465159 133.34658692 -11.72391155 130.09885394 -15.25 127.0625 C-17.47090625 124.44500335 -17.6937722 122.36850575 -18 119 C-18.99 118.67 -19.98 118.34 -21 118 C-22.86364253 115.4116076 -23.1742297 112.96981788 -23.5 109.875 C-23.59986718 105.99293052 -23.59986718 105.99293052 -26 104 C-28.2166851 100.67497234 -28.04847167 99.24386092 -27.9375 95.39453125 C-28.00674137 92.74172118 -28.47046768 90.34985662 -29 87.75 C-31.52655255 73.35410345 -30.27755463 59.13847096 -27 45 C-26.79890625 44.071875 -26.5978125 43.14375 -26.390625 42.1875 C-25.94212399 40.12167717 -25.47287418 38.06038034 -25 36 C-24.66013333 34.33465333 -24.32297514 32.66870487 -24 31 C-23.34 31 -22.68 31 -22 31 C-21.67 29.02 -21.34 27.04 -21 25 C-20.34 25 -19.68 25 -19 25 C-18.01 21.535 -18.01 21.535 -17 18 C-16.34 18 -15.68 18 -15 18 C-13.70925452 16.35912126 -12.49238973 14.65981448 -11.3125 12.9375 C-7.9152895 8.13047819 -4.33595555 3.9701093 0 0 Z M-24 34 C-23 36 -23 36 -23 36 Z M-21 53 C-20 56 -20 56 -20 56 Z M-27 97 C-26 100 -26 100 -26 100 Z M-17 102 C-16 104 -16 104 -16 104 Z M-22 111 C-21 113 -21 113 -21 113 Z " fill="#FFFFFF" transform="translate(107,23)"/>
<path d="M0 0 C4.51082826 0.33812001 6.3726835 1.91784967 9.3125 5.25 C16.22325965 13.28951706 21.49738492 22.43194296 26 32 C26.66 32 27.32 32 28 32 C28.12246094 33.17046875 28.24492187 34.3409375 28.37109375 35.546875 C28.87396797 39.59470202 29.91886089 43.33129395 31.0625 47.25 C35.29748261 63.73618232 34.68655491 82.40727612 29.875 98.6796875 C28.8589812 101.9628374 28.8589812 101.9628374 29 105.3203125 C29 106.20460938 29 107.08890625 29 108 C28.01 108.99 28.01 108.99 27 110 C25.87285035 111.99929165 25.87285035 111.99929165 25.625 114.4375 C24.92340063 117.31405742 24.07686044 118.00967541 22 120 C21.835 120.70125 21.67 121.4025 21.5 122.125 C21.335 122.74375 21.17 123.3625 21 124 C19.515 124.495 19.515 124.495 18 125 C16.0793183 127.34593379 16.0793183 127.34593379 14.1875 130.1875 C11.06235065 134.58564596 8.18604911 138.57505073 4 142 C1.828125 141.640625 1.828125 141.640625 0 141 C-0.76171875 138.80859375 -0.76171875 138.80859375 -1 136 C0.73046875 133.53515625 0.73046875 133.53515625 3.1875 131.0625 C8.51792884 125.4667932 11.85975378 121.81883124 13 114 C13.93942486 111.97084231 14.92598385 109.96124688 16 108 C16.66 108 17.32 108 18 108 C18.12375 106.85273438 18.2475 105.70546875 18.375 104.5234375 C18.9253382 100.12654536 19.8905004 95.91024121 21 91.625 C21.17789062 90.91472656 21.35578125 90.20445313 21.5390625 89.47265625 C22.85877172 84.28245656 22.85877172 84.28245656 24 82 C24.08471364 80.18658158 24.10721083 78.37005839 24.09765625 76.5546875 C24.09282227 74.94013672 24.09282227 74.94013672 24.08789062 73.29296875 C24.07951172 72.16503906 24.07113281 71.03710938 24.0625 69.875 C24.05798828 68.73933594 24.05347656 67.60367188 24.04882812 66.43359375 C24.03701615 63.62234362 24.02054507 60.8111977 24 58 C23.67 58 23.34 58 23 58 C22.95101563 57.32453125 22.90203125 56.6490625 22.8515625 55.953125 C22.77679688 55.06109375 22.70203125 54.1690625 22.625 53.25 C22.55539062 52.36828125 22.48578125 51.4865625 22.4140625 50.578125 C21.99736312 47.98358167 21.28420678 46.27055571 20 44 C18.1790402 40.03673456 17.50891119 36.32574508 17 32 C16.34 32 15.68 32 15 32 C14.67 30.02 14.34 28.04 14 26 C13.01 25.67 12.02 25.34 11 25 C7.15154724 20.01964937 7.15154724 20.01964937 6.640625 16.58203125 C5.60738194 12.41755769 2.58509991 10.14637136 -0.3828125 7.18359375 C-2 5 -2 5 -1.8046875 2.78515625 C-1 1 -1 1 0 0 Z M19 37 C20 39 20 39 20 39 Z M23 51 C24 53 24 53 24 53 Z M25 65 C25 69.29 25 73.58 25 78 C25.33 78 25.66 78 26 78 C26 73.71 26 69.42 26 65 C25.67 65 25.34 65 25 65 Z M23 89 C24 91 24 91 24 91 Z M21 97 C22 99 22 99 22 99 Z M20 100 C21 103 21 103 21 103 Z M19 104 C20 106 20 106 20 106 Z M27 105 C28 107 28 107 28 107 Z " fill="#FFFFFF" transform="translate(240,23)"/>
<path d="M0 0 C2.3726315 1.57160604 2.7426613 2.50439952 3.56518555 5.19262695 C3.82162842 5.97726318 4.07807129 6.76189941 4.34228516 7.5703125 C4.6079126 8.40860596 4.87354004 9.24689941 5.1472168 10.1105957 C11.34895087 28.20139978 22.70838969 40.98413228 39.76831055 49.73950195 C51.47044341 55.05865326 64.31913454 57.2345408 77.09643555 55.9934082 C78.18569336 55.88770508 79.27495117 55.78200195 80.3972168 55.6730957 C81.40655273 55.55708008 82.41588867 55.44106445 83.45581055 55.3215332 C84.28209961 55.31379883 85.10838867 55.30606445 85.9597168 55.2980957 C86.6197168 55.9580957 87.2797168 56.6180957 87.9597168 57.2980957 C87.6327412 59.91390049 87.13932611 61.93887707 85.9597168 64.2980957 C79.52627041 65.48280961 73.10944258 65.44902177 66.5847168 65.4230957 C65.58827148 65.42696289 64.59182617 65.43083008 63.56518555 65.43481445 C62.61514648 65.43352539 61.66510742 65.43223633 60.6862793 65.4309082 C59.82599121 65.42978027 58.96570313 65.42865234 58.0793457 65.42749023 C55.9597168 65.2980957 55.9597168 65.2980957 53.9597168 64.2980957 C52.9697168 63.9680957 51.9797168 63.6380957 50.9597168 63.2980957 C50.6297168 63.6280957 50.2997168 63.9580957 49.9597168 64.2980957 C46.50046517 63.0489215 43.81278477 61.62281775 40.9597168 59.2980957 C40.4647168 60.2880957 40.4647168 60.2880957 39.9597168 61.2980957 C39.9597168 60.3080957 39.9597168 59.3180957 39.9597168 58.2980957 C39.0934668 58.6384082 39.0934668 58.6384082 38.2097168 58.9855957 C35.9597168 59.2980957 35.9597168 59.2980957 33.9597168 58.1105957 C32.67147109 56.94312303 31.41730675 55.73631387 30.2097168 54.4855957 C27.68889239 52.0347942 24.99518892 50.02225459 22.1550293 47.95825195 C6.70268638 36.27276131 -2.34059224 20.21937235 -6.0402832 1.2980957 C-2.61930852 -0.90110231 -2.61930852 -0.90110231 0 0 Z " fill="#FFFFFF" transform="translate(106.040283203125,105.701904296875)"/>
<path d="M0 0 C3.17243124 2.16127868 6.09124303 4.49948962 9 7 C9.65097656 7.49628906 10.30195313 7.99257813 10.97265625 8.50390625 C24.11885663 18.93200556 31.80957849 34.84038534 35 51 C35 51.66 35 52.32 35 53 C33.1875 54.0625 33.1875 54.0625 31 55 C29.515 54.505 29.515 54.505 28 54 C26.93175346 51.37277183 26.0337646 48.82291559 25.1875 46.125 C19.39319546 28.92108867 9.28614937 14.15147326 -7.0625 5.3515625 C-19.19667858 -0.51519837 -29.54258349 -2.45230285 -43 -2.1875 C-44.30839844 -2.17396484 -45.61679688 -2.16042969 -46.96484375 -2.14648438 C-49.36727254 -2.12045186 -51.76964857 -2.08822726 -54.171875 -2.04760742 C-56.11437294 -2.01490826 -58.05722685 -2 -60 -2 C-60.33 -3.65 -60.66 -5.3 -61 -7 C-42.92242612 -17.54525143 -16.56351721 -9.9590768 0 0 Z " fill="#FFFFFF" transform="translate(215,29)"/>
<path d="M0 0 C2.701875 -0.020625 5.40375 -0.04125 8.1875 -0.0625 C9.45049927 -0.07615601 9.45049927 -0.07615601 10.73901367 -0.09008789 C14.62944463 -0.10442325 18.20130793 0.03319861 22 1 C22 1.66 22 2.32 22 3 C22.33 2.505 22.66 2.01 23 1.5 C25.59674102 -0.44755577 27.80734823 -0.47485798 30.99609375 -0.36328125 C34.11301653 0.20177493 35.8367302 1.77117657 38 4 C39.27861615 6.55723229 39.11336609 8.36737102 39.09765625 11.2265625 C39.09443359 12.2578125 39.09121094 13.2890625 39.08789062 14.3515625 C39.07532227 15.97191406 39.07532227 15.97191406 39.0625 17.625 C39.05798828 18.71296875 39.05347656 19.8009375 39.04882812 20.921875 C39.03701776 23.61463789 39.02054778 26.30729188 39 29 C37.35 29 35.7 29 34 29 C33.67 21.41 33.34 13.82 33 6 C30.69 5.67 28.38 5.34 26 5 C23.43925687 7.96915036 22.61356564 9.85675216 22.48828125 13.765625 C22.45283203 14.65507812 22.41738281 15.54453125 22.38085938 16.4609375 C22.35830078 17.38132813 22.33574219 18.30171875 22.3125 19.25 C22.27833984 20.18585938 22.24417969 21.12171875 22.20898438 22.0859375 C22.12667838 24.39050533 22.0574737 26.69470119 22 29 C19.625 29.1875 19.625 29.1875 17 29 C14.47224649 25.20836973 14.77556965 22.19125969 14.875 17.8125 C14.88402344 17.06291016 14.89304687 16.31332031 14.90234375 15.54101562 C14.92587422 13.69387346 14.96174439 11.84689588 15 10 C15.66 10 16.32 10 17 10 C16.67 8.68 16.34 7.36 16 6 C13.14221967 5.31506627 13.14221967 5.31506627 10 5 C9.01 5.66 8.02 6.32 7 7 C6.49156938 9.31753588 6.49156938 9.31753588 6.48828125 12.0078125 C6.43510742 13.48701172 6.43510742 13.48701172 6.38085938 14.99609375 C6.35830078 16.02863281 6.33574219 17.06117188 6.3125 18.125 C6.27833984 19.16527344 6.24417969 20.20554688 6.20898438 21.27734375 C6.12632942 23.85145507 6.05723845 26.42521829 6 29 C4.35 29 2.7 29 1 29 C0.67 19.43 0.34 9.86 0 0 Z " fill="#FFFFFF" transform="translate(251,200)"/>
<path d="M0 0 C-0.33 1.65 -0.66 3.3 -1 5 C-4.15506142 5.93619813 -6.96586502 6.1057123 -10.25 6.0625 C-11.14203125 6.05347656 -12.0340625 6.04445312 -12.953125 6.03515625 C-13.62859375 6.02355469 -14.3040625 6.01195312 -15 6 C-15.66 7.32 -16.32 8.64 -17 10 C-16.41992188 10.18175781 -15.83984375 10.36351562 -15.2421875 10.55078125 C-8.67577778 12.66373487 -2.87914455 15.36876366 3 19 C2.7525 20.5778125 2.7525 20.5778125 2.5 22.1875 C2.10430322 25.20468796 1.90821029 27.97093972 2 31 C-4.03760891 34.57784231 -8.95537562 36.29095802 -16 35 C-19.08791457 33.76280599 -21.60196848 32.3166362 -24 30 C-25 27.1875 -25 27.1875 -25 25 C-23.4375 24.25 -23.4375 24.25 -21 24 C-19.30707258 25.0092452 -17.61587889 26.02216214 -15.94921875 27.07421875 C-12.61751543 28.65661091 -9.62927638 28.25468606 -6 28 C-5.7497843 25.08365871 -5.7497843 25.08365871 -6 22 C-8.88692264 20.07538491 -10.04219762 19.70148535 -13.3125 19.1875 C-18.19152804 18.15110516 -20.70975792 16.79643317 -24 13 C-24.9236595 8.38170252 -24.41120193 6.62267721 -21.8125 2.6875 C-15.38129658 -3.45787216 -7.94542795 -3.17817118 0 0 Z " fill="#FFFFFF" transform="translate(146,195)"/>
<path d="M0 0 C0.625 1.875 0.625 1.875 1 4 C-1 6 -1 6 -3.625 6.125 C-4.40875 6.08375 -5.1925 6.0425 -6 6 C-5.95286865 7.0355603 -5.95286865 7.0355603 -5.90478516 8.09204102 C-5.77934106 11.24852147 -5.70180196 14.40447672 -5.625 17.5625 C-5.54958984 19.19155273 -5.54958984 19.19155273 -5.47265625 20.85351562 C-5.37655903 26.12284659 -5.33849163 29.98660276 -8.73828125 34.20703125 C-12.00254678 37.35898522 -14.41802745 38.05663594 -18.890625 38.19921875 C-22.02715305 37.9029911 -23.64219927 37.08833779 -26 35 C-28.3125 31.8125 -28.3125 31.8125 -30 29 C-30.66 29.33 -31.32 29.66 -32 30 C-32 28.68 -32 27.36 -32 26 C-25.375 25 -25.375 25 -22 25 C-21.34 25.99 -20.68 26.98 -20 28 C-17.47266765 28.65555119 -17.47266765 28.65555119 -15 29 C-14.67 29.33 -14.34 29.66 -14 30 C-13.16628641 27.04491553 -12.82110466 24.29890387 -12.68359375 21.234375 C-12.64169922 20.34492188 -12.59980469 19.45546875 -12.55664062 18.5390625 C-12.51732422 17.61867187 -12.47800781 16.69828125 -12.4375 15.75 C-12.39431641 14.81414062 -12.35113281 13.87828125 -12.30664062 12.9140625 C-12.20082061 10.60953778 -12.09993083 8.30478761 -12 6 C-16.95 6 -21.9 6 -27 6 C-27.33 4.35 -27.66 2.7 -28 1 C-25.64768329 -1.35231671 -19.98573839 -0.48105056 -16.8125 -0.625 C-15.86568359 -0.6765625 -14.91886719 -0.728125 -13.94335938 -0.78125 C-9.13616389 -1.00936535 -4.73352001 -1.06603644 0 0 Z " fill="#FFFFFF" transform="translate(41,193)"/>
<path d="M0 0 C3.42111478 1.67578996 5.46452082 4.07508141 7.375 7.375 C8 10 8 10 8 17 C1.07 17 -5.86 17 -13 17 C-12.34 18.98 -11.68 20.96 -11 23 C-7.35779196 24.64930176 -5.11154381 25.24700974 -1.1875 24.375 C1.27233718 22.82881663 2.01173216 21.69527592 3 19 C4.65 19 6.3 19 8 19 C6.75892597 23.96429611 5.23893588 26.13871828 1 29 C-2.20936686 30.60468343 -5.51819961 30.48719222 -9 30 C-12.25 28.125 -12.25 28.125 -15 26 C-16.32172742 25.3106098 -17.65313898 24.63889561 -19 24 C-20.07009 8.74697108 -20.07009 8.74697108 -17.51171875 4.5703125 C-15.72756093 3.08536127 -14.09606931 1.98638556 -12 1 C-8.26836358 -0.86581821 -4.06325499 -0.55464677 0 0 Z M-13 9 C-13 9.99 -13 10.98 -13 12 C-7.72 12 -2.44 12 3 12 C2.49814904 7.21726351 2.49814904 7.21726351 0.3125 5.1875 C-5.62871399 2.13660633 -9.05967036 4.01664192 -13 9 Z " fill="#FFFFFF" transform="translate(209,200)"/>
<path d="M0 0 C3.11593195 1.69902929 5.38899662 3.77799325 7 7 C7.08426094 8.6674606 7.10725143 10.33825187 7.09765625 12.0078125 C7.09443359 12.99394531 7.09121094 13.98007813 7.08789062 14.99609375 C7.07951172 16.02863281 7.07113281 17.06117188 7.0625 18.125 C7.05798828 19.16527344 7.05347656 20.20554688 7.04882812 21.27734375 C7.03701952 23.85161962 7.02055075 26.42578146 7 29 C5.35 29 3.7 29 2 29 C1.67 28.34 1.34 27.68 1 27 C0.154375 27.495 -0.69125 27.99 -1.5625 28.5 C-5.50282122 30.21941289 -7.74720893 30.60754158 -12 30 C-15.46251541 28.11347255 -17.67726909 26.03734935 -18.875 22.1875 C-18.936875 21.1046875 -18.936875 21.1046875 -19 20 C-19.66 20.33 -20.32 20.66 -21 21 C-20.44832352 18.16280666 -19.66556375 16.47453634 -17.28515625 14.77734375 C-10.93287428 11.57248539 -4.99545292 11.57388104 2 12 C1.39816251 9.97954558 0.72693904 7.97888961 0 6 C-2.40545638 4.79727181 -3.94996953 4.89928528 -6.625 4.9375 C-7.44226563 4.94652344 -8.25953125 4.95554688 -9.1015625 4.96484375 C-9.72804687 4.97644531 -10.35453125 4.98804688 -11 5 C-11.66 6.65 -12.32 8.3 -13 10 C-14.32 10 -15.64 10 -17 10 C-16.82029582 6.04650797 -16.4403563 4.42906511 -13.5625 1.625 C-8.90195558 -0.50086237 -5.04216666 -0.97247623 0 0 Z M-13 19 C-13.58350505 21.54290625 -13.58350505 21.54290625 -13 24 C-10.13271366 26.32319869 -10.13271366 26.32319869 -6.625 25.9375 C-2.33362227 24.82766093 -0.67930882 23.49122059 2 20 C2 18.68 2 17.36 2 16 C0.2507786 15.91857073 -1.49954542 15.86061459 -3.25 15.8125 C-4.22453125 15.77769531 -5.1990625 15.74289063 -6.203125 15.70703125 C-9.41231982 16.04318993 -10.72309523 16.74975688 -13 19 Z " fill="#FFFFFF" transform="translate(239,200)"/>
<path d="M0 0 C1.1034375 -0.00515625 2.206875 -0.0103125 3.34375 -0.015625 C6.46392334 0.24696385 8.68304814 0.92561218 11.5 2.25 C11.17 3.57 10.84 4.89 10.5 6.25 C9.84 6.25 9.18 6.25 8.5 6.25 C6.85 6.58 5.2 6.91 3.5 7.25 C3.83 14.84 4.16 22.43 4.5 30.25 C6.15 30.91 7.8 31.57 9.5 32.25 C8.625 36.125 8.625 36.125 7.5 37.25 C5.00761431 37.37653198 2.55529559 37.43519825 0.0625 37.4375 C-0.97874023 37.45586914 -0.97874023 37.45586914 -2.04101562 37.47460938 C-3.86220901 37.47989842 -5.6828692 37.37169207 -7.5 37.25 C-8.16 36.59 -8.82 35.93 -9.5 35.25 C-9.125 33.125 -9.125 33.125 -8.5 31.25 C-7.18 30.92 -5.86 30.59 -4.5 30.25 C-4.17 22.99 -3.84 15.73 -3.5 8.25 C-8.06671088 6.06430466 -8.06671088 6.06430466 -11.5 6.25 C-11.5 4.93 -11.5 3.61 -11.5 2.25 C-7.53869906 0.38759732 -4.36265773 -0.02038625 0 0 Z " fill="#FFFFFF" transform="translate(305.5,191.75)"/>
<path d="M0 0 C1.0209375 0.8353125 1.0209375 0.8353125 2.0625 1.6875 C2.68125 2.14125 3.3 2.595 3.9375 3.0625 C5.0625 4.6875 5.0625 4.6875 4.75 7.375 C4.523125 8.138125 4.29625 8.90125 4.0625 9.6875 C1.125 8.875 1.125 8.875 -1.9375 7.6875 C-2.2675 6.6975 -2.5975 5.7075 -2.9375 4.6875 C-5.67655345 3.31797327 -7.90837332 3.56128639 -10.9375 3.6875 C-11.9275 4.1825 -11.9275 4.1825 -12.9375 4.6875 C-13.58963292 6.71213255 -13.58963292 6.71213255 -13.9375 8.6875 C-13.12925781 8.85765625 -12.32101563 9.0278125 -11.48828125 9.203125 C0.00009183 11.80844966 0.00009183 11.80844966 3.0625 15.6875 C4.02272665 18.65547328 4.62083586 21.60244302 5.0625 24.6875 C-0.66694198 28.02099351 -5.25925586 29.9219259 -11.9375 28.6875 C-15.24540397 27.00347616 -17.25538658 25.71067013 -19.3125 22.625 C-19.9375 20.6875 -19.9375 20.6875 -19.9375 17.6875 C-15.1875 17.5625 -15.1875 17.5625 -12.9375 18.6875 C-12.9375 20.0075 -12.9375 21.3275 -12.9375 22.6875 C-8.52687864 23.7132259 -6.01119424 23.72434712 -1.9375 21.6875 C-1.9375 20.3675 -1.9375 19.0475 -1.9375 17.6875 C-2.91332031 17.37296875 -3.88914062 17.0584375 -4.89453125 16.734375 C-6.17992286 16.30278366 -7.46506639 15.870453 -8.75 15.4375 C-9.39259766 15.23253906 -10.03519531 15.02757812 -10.69726562 14.81640625 C-14.59960097 13.48192888 -16.97655925 12.38527399 -18.9375 8.6875 C-19.625 4.9375 -19.625 4.9375 -19.9375 1.6875 C-13.50280194 -1.66973377 -6.85327537 -3.06210176 0 0 Z M2.0625 3.6875 C3.0625 5.6875 3.0625 5.6875 3.0625 5.6875 Z M3.0625 5.6875 C4.0625 7.6875 4.0625 7.6875 4.0625 7.6875 Z " fill="#FFFFFF" transform="translate(92.9375,201.3125)"/>
<path d="M0 0 C2.31 0 4.62 0 7 0 C6.99214478 0.98395752 6.99214478 0.98395752 6.98413086 1.98779297 C6.96338728 4.95018563 6.95034824 7.91256303 6.9375 10.875 C6.92912109 11.90753906 6.92074219 12.94007813 6.91210938 14.00390625 C6.90888672 14.99003906 6.90566406 15.97617188 6.90234375 16.9921875 C6.89448853 18.35899658 6.89448853 18.35899658 6.88647461 19.75341797 C6.85114435 22.03687509 6.85114435 22.03687509 8 24 C10.28431033 24.94141059 10.28431033 24.94141059 13 25 C16.71261227 23.24886475 16.71261227 23.24886475 19 20 C19.08372659 18.47851674 19.10730027 16.95344222 19.09765625 15.4296875 C19.09282227 14.08583984 19.09282227 14.08583984 19.08789062 12.71484375 C19.07951172 11.77769531 19.07113281 10.84054688 19.0625 9.875 C19.05798828 8.93011719 19.05347656 7.98523438 19.04882812 7.01171875 C19.03702357 4.67441613 19.02055759 2.33723939 19 0 C20.98 0 22.96 0 25 0 C25 9.57 25 19.14 25 29 C23.02 29 21.04 29 19 29 C18.67 28.67 18.34 28.34 18 28 C17.01 28.66 16.02 29.32 15 30 C11.70701945 30.43492196 9.19665043 30.69293789 6.24609375 28.984375 C3.54398144 26.82268515 2.1033393 25.31001789 1 22 C0.85222064 20.30132812 0.75252934 18.59822511 0.68359375 16.89453125 C0.64169922 15.91162109 0.59980469 14.92871094 0.55664062 13.91601562 C0.51732422 12.89185547 0.47800781 11.86769531 0.4375 10.8125 C0.39431641 9.77673828 0.35113281 8.74097656 0.30664062 7.67382812 C0.20055634 5.1160181 0.09849854 2.55811155 0 0 Z " fill="#FFFFFF" transform="translate(44,200)"/>
<path d="M0 0 C0.80566406 0.00322266 1.61132812 0.00644531 2.44140625 0.00976562 C3.70404297 0.02233398 3.70404297 0.02233398 4.9921875 0.03515625 C5.84167969 0.03966797 6.69117188 0.04417969 7.56640625 0.04882812 C9.66669659 0.06062751 11.7669508 0.07856319 13.8671875 0.09765625 C13.8671875 1.74765625 13.8671875 3.39765625 13.8671875 5.09765625 C13.16851562 5.1234375 12.46984375 5.14921875 11.75 5.17578125 C10.83992188 5.2325 9.92984375 5.28921875 8.9921875 5.34765625 C8.08726562 5.3940625 7.18234375 5.44046875 6.25 5.48828125 C3.75264837 5.83997375 3.75264837 5.83997375 2.73046875 7.8515625 C1.79008637 10.29825873 1.63658783 12.03328077 1.671875 14.64453125 C1.67832031 15.48886719 1.68476563 16.33320313 1.69140625 17.203125 C1.70816406 18.07582031 1.72492188 18.94851562 1.7421875 19.84765625 C1.75121094 20.73582031 1.76023438 21.62398437 1.76953125 22.5390625 C1.79304173 24.72553683 1.82590251 26.91145719 1.8671875 29.09765625 C-0.4428125 29.09765625 -2.7528125 29.09765625 -5.1328125 29.09765625 C-6.48981897 26.38364331 -6.2451986 24.24919309 -6.23046875 21.21484375 C-6.22724609 20.04824219 -6.22402344 18.88164062 -6.22070312 17.6796875 C-6.21232422 16.45636719 -6.20394531 15.23304688 -6.1953125 13.97265625 C-6.19080078 12.74160156 -6.18628906 11.51054687 -6.18164062 10.2421875 C-6.1698258 7.19396233 -6.15335278 4.14583311 -6.1328125 1.09765625 C-3.8362755 -0.05061225 -2.54968083 -0.0179555 0 0 Z M-0.1328125 1.09765625 C0.1971875 1.75765625 0.5271875 2.41765625 0.8671875 3.09765625 C1.1971875 2.43765625 1.5271875 1.77765625 1.8671875 1.09765625 C1.2071875 1.09765625 0.5471875 1.09765625 -0.1328125 1.09765625 Z " fill="#FFFFFF" transform="translate(177.1328125,199.90234375)"/>
<path d="M0 0 C-0.33 2.31 -0.66 4.62 -1 7 C1.64 7 4.28 7 7 7 C6.67 8.65 6.34 10.3 6 12 C3.69 12 1.38 12 -1 12 C-0.67 18.27 -0.34 24.54 0 31 C2.31 31.33 4.62 31.66 7 32 C7 32.99 7 33.98 7 35 C5.4211316 36.5788684 3.80707663 36.28319742 1.625 36.375 C0.83351562 36.42398438 0.04203125 36.47296875 -0.7734375 36.5234375 C-3 36 -3 36 -4.77734375 34.05859375 C-6.45685429 29.85713447 -6.3252605 26.16295008 -6.1875 21.6875 C-6.17396484 20.85154297 -6.16042969 20.01558594 -6.14648438 19.15429688 C-6.11131217 17.10258502 -6.05751048 15.05120725 -6 13 C-7.65 12.67 -9.3 12.34 -11 12 C-11 10.35 -11 8.7 -11 7 C-9.35 7 -7.7 7 -6 7 C-7.65 6.67 -9.3 6.34 -11 6 C-10.01 5.67 -9.02 5.34 -8 5 C-8 3.35 -8 1.7 -8 0 C-4.94736336 -0.98120464 -3.05263664 -0.98120464 0 0 Z " fill="#FFFFFF" transform="translate(162,193)"/>
<path d="M0 0 C0 2.64 0 5.28 0 8 C2.31 8 4.62 8 7 8 C7 9.65 7 11.3 7 13 C4.69 13 2.38 13 0 13 C0.33 19.27 0.66 25.54 1 32 C2.98 32.33 4.96 32.66 7 33 C7 34.32 7 35.64 7 37 C5.56416999 37.10836453 4.1259798 37.18576167 2.6875 37.25 C1.88699219 37.29640625 1.08648437 37.3428125 0.26171875 37.390625 C-2 37 -2 37 -3.62304688 35.2734375 C-5.20990824 32.6534281 -5.35130953 31.2680958 -5.29296875 28.234375 C-5.28330078 27.34492188 -5.27363281 26.45546875 -5.26367188 25.5390625 C-5.23853516 24.61867187 -5.21339844 23.69828125 -5.1875 22.75 C-5.17396484 21.81414062 -5.16042969 20.87828125 -5.14648438 19.9140625 C-5.11119954 17.60878673 -5.06190281 15.3046894 -5 13 C-6.65 13 -8.3 13 -10 13 C-10 11.35 -10 9.7 -10 8 C-8.68 7.67 -7.36 7.34 -6 7 C-7.32 6.67 -8.64 6.34 -10 6 C-9.01 6 -8.02 6 -7 6 C-7 4.35 -7 2.7 -7 1 C-4.50935112 0.31292445 -2.62113708 0 0 0 Z " fill="#FFFFFF" transform="translate(329,192)"/>
<path d="M0 0 C0 2.64 0 5.28 0 8 C2.64 8 5.28 8 8 8 C7.67 9.65 7.34 11.3 7 13 C4.69 13.33 2.38 13.66 0 14 C0 20.27 0 26.54 0 33 C1.98 33 3.96 33 6 33 C6 34.32 6 35.64 6 37 C-1.50992491 37.36934057 -1.50992491 37.36934057 -3.609375 35.78710938 C-5.43838788 33.43662231 -5.34667883 32.06733546 -5.29296875 29.11328125 C-5.28330078 28.17548828 -5.27363281 27.23769531 -5.26367188 26.27148438 C-5.23853516 25.29501953 -5.21339844 24.31855469 -5.1875 23.3125 C-5.17396484 22.32443359 -5.16042969 21.33636719 -5.14648438 20.31835938 C-5.11112203 17.87835769 -5.06177033 15.43945281 -5 13 C-6.98 13 -8.96 13 -11 13 C-11 11.35 -11 9.7 -11 8 C-9.02 8 -7.04 8 -5 8 C-5 5.69 -5 3.38 -5 1 C-3 0 -3 0 0 0 Z " fill="#FFFFFF" transform="translate(110,192)"/>
<path d="M0 0 C2.97973615 -0.08184423 5.95716832 -0.14089764 8.9375 -0.1875 C9.76830078 -0.21263672 10.59910156 -0.23777344 11.45507812 -0.26367188 C17.50202899 -0.33425885 22.39516349 0.74535602 28 3 C24.60297231 4.13234256 23.34525967 3.55330413 20.04638672 2.52050781 C16.27802986 1.56200903 12.43326096 1.52471517 8.5625 1.375 C7.32209961 1.31699219 7.32209961 1.31699219 6.05664062 1.2578125 C4.03808927 1.16446908 2.01907669 1.08119039 0 1 C0 0.67 0 0.34 0 0 Z " fill="#FFFFFF" transform="translate(166,43)"/>
<path d="M0 0 C1.32 0 2.64 0 4 0 C4.04898437 1.31355469 4.09796875 2.62710938 4.1484375 3.98046875 C4.22349468 5.71616595 4.29904123 7.45184203 4.375 9.1875 C4.4059375 10.05181641 4.436875 10.91613281 4.46875 11.80664062 C4.67345389 16.25895022 4.93722933 19.94992587 7 24 C5.015625 22.609375 5.015625 22.609375 3 20 C2.4903804 16.74024388 2.62367488 13.53931183 2.75 10.25 C2.76804687 9.36183594 2.78609375 8.47367188 2.8046875 7.55859375 C2.85172626 5.37129152 2.91742991 3.18620184 3 1 C2.01 0.67 1.02 0.34 0 0 Z " fill="#FFFFFF" transform="translate(319,206)"/>
<path d="M0 0 C0.33 0 0.66 0 1 0 C1.19840395 3.20775542 1.38175425 6.41620501 1.5625 9.625 C1.61857422 10.52863281 1.67464844 11.43226563 1.73242188 12.36328125 C1.99066718 17.08056217 2.04292737 21.34931647 1 26 C0.67 26 0.34 26 0 26 C0 17.42 0 8.84 0 0 Z " fill="#FFFFFF" transform="translate(70,202)"/>
<path d="M0 0 C0.33 0 0.66 0 1 0 C1 9.24 1 18.48 1 28 C0.67 28 0.34 28 0 28 C0 18.76 0 9.52 0 0 Z " fill="#FFFFFF" transform="translate(250,201)"/>
<path d="M0 0 C2.475 0.495 2.475 0.495 5 1 C5 7.93 5 14.86 5 22 C4.01 21.67 3.02 21.34 2 21 C2.66 21 3.32 21 4 21 C4 14.73 4 8.46 4 2 C2.68 1.67 1.36 1.34 0 1 C0 0.67 0 0.34 0 0 Z " fill="#FFFFFF" transform="translate(296,199)"/>
<path d="M0 0 C0.33 0 0.66 0 1 0 C1 8.58 1 17.16 1 26 C-0.78259577 22.43480845 -1.25170191 21.4695989 -1.23046875 17.8125 C-1.22853516 17.03132813 -1.22660156 16.25015625 -1.22460938 15.4453125 C-1.21236328 14.63835937 -1.20011719 13.83140625 -1.1875 13 C-1.18685547 12.19304687 -1.18621094 11.38609375 -1.18554688 10.5546875 C-1.15801978 6.84770559 -1.0100235 3.58671688 0 0 Z " fill="#FFFFFF" transform="translate(125,81)"/>
<path d="M0 0 C1.65 0 3.3 0 5 0 C3.68 0.33 2.36 0.66 1 1 C1 8.26 1 15.52 1 23 C0.67 23 0.34 23 0 23 C0 15.41 0 7.82 0 0 Z " fill="#FFFFFF" transform="translate(36,200)"/>
<path d="M0 0 C1.98 0 3.96 0 6 0 C6 0.33 6 0.66 6 1 C4.35 1 2.7 1 1 1 C1 5.95 1 10.9 1 16 C1.99 16.33 2.98 16.66 4 17 C2.68 17 1.36 17 0 17 C0 11.39 0 5.78 0 0 Z " fill="#FFFFFF" transform="translate(162,206)"/>
<path d="M0 0 C0.99 0.33 1.98 0.66 3 1 C2.34 1 1.68 1 1 1 C1 7.27 1 13.54 1 20 C1.66 20.33 2.32 20.66 3 21 C2.01 21 1.02 21 0 21 C0 14.07 0 7.14 0 0 Z " fill="#FFFFFF" transform="translate(310,200)"/>
<path d="M0 0 C7.92 0 15.84 0 24 0 C24 0.33 24 0.66 24 1 C16.08 1 8.16 1 0 1 C0 0.67 0 0.34 0 0 Z " fill="#FFFFFF" transform="translate(16,190)"/>
<path d="M0 0 C1.32 0 2.64 0 4 0 C4 6.6 4 13.2 4 20 C3.67 20 3.34 20 3 20 C3 13.73 3 7.46 3 1 C2.01 0.67 1.02 0.34 0 0 Z " fill="#FFFFFF" transform="translate(100,206)"/>
<path d="M0 0 C1.32 0.33 2.64 0.66 4 1 C4.33 2.32 4.66 3.64 5 5 C0.38 5 -4.24 5 -9 5 C-8.67 4.34 -8.34 3.68 -8 3 C-4.37 3.33 -0.74 3.66 3 4 C2.01 2.68 1.02 1.36 0 0 Z " fill="#FFFFFF" transform="translate(206,206)"/>
<path d="M0 0 C1.32 0 2.64 0 4 0 C4 6.27 4 12.54 4 19 C3.67 19 3.34 19 3 19 C3 13.06 3 7.12 3 1 C2.01 0.67 1.02 0.34 0 0 Z " fill="#FFFFFF" transform="translate(151,206)"/>
<path d="M0 0 C1.65 0 3.3 0 5 0 C3.68 0.33 2.36 0.66 1 1 C1 6.61 1 12.22 1 18 C0.67 18 0.34 18 0 18 C0 12.06 0 6.12 0 0 Z " fill="#FFFFFF" transform="translate(111,206)"/>
<path d="M0 0 C0.33 0 0.66 0 1 0 C1 7.26 1 14.52 1 22 C0.67 22 0.34 22 0 22 C0 14.74 0 7.48 0 0 Z " fill="#FFFFFF" transform="translate(43,201)"/>
<path d="M0 0 C3.18079819 0.07573329 5.31866702 0.41492598 7.76953125 2.51953125 C10.84357693 5.93913711 10.84357693 5.93913711 12 8 C11.67 8.99 11.34 9.98 11 11 C10.4225 10.071875 9.845 9.14375 9.25 8.1875 C7.25120708 5.35587669 5.85159767 3.83974043 3 2 C2.01 1.34 1.02 0.68 0 0 Z " fill="#FFFFFF" transform="translate(206,198)"/>
<path d="M0 0 C0.33 0 0.66 0 1 0 C1 7.26 1 14.52 1 22 C0.67 22 0.34 22 0 22 C0 14.74 0 7.48 0 0 Z " fill="#FFFFFF" transform="translate(75,83)"/>
<path d="M0 0 C0.33 0 0.66 0 1 0 C1 6.93 1 13.86 1 21 C0.67 21 0.34 21 0 21 C0 14.07 0 7.14 0 0 Z " fill="#FFFFFF" transform="translate(283,207)"/>
<path d="M0 0 C0.33 0 0.66 0 1 0 C1.73030908 6.21324498 2.23180249 11.84098757 1 18 C0.67 18 0.34 18 0 18 C0 12.06 0 6.12 0 0 Z " fill="#FFFFFF" transform="translate(214,85)"/>
<path d="M0 0 C0.33 0 0.66 0 1 0 C1 6.6 1 13.2 1 20 C0.67 20 0.34 20 0 20 C0 13.4 0 6.8 0 0 Z " fill="#FFFFFF" transform="translate(247,208)"/>
<path d="M0 0 C0.99 0.33 1.98 0.66 3 1 C2.01 1.495 2.01 1.495 1 2 C0.67 2.99 0.34 3.98 0 5 C4.455 4.505 4.455 4.505 9 4 C8.67 4.66 8.34 5.32 8 6 C5.03 6 2.06 6 -1 6 C-1.042721 4.33388095 -1.04063832 2.66617115 -1 1 C-0.67 0.67 -0.34 0.34 0 0 Z " fill="#FFFFFF" transform="translate(228,218)"/>
<path d="M0 0 C4.95 0 9.9 0 15 0 C15 0.33 15 0.66 15 1 C14.07316406 1.04898438 13.14632812 1.09796875 12.19140625 1.1484375 C10.99386719 1.22320312 9.79632813 1.29796875 8.5625 1.375 C6.77005859 1.47941406 6.77005859 1.47941406 4.94140625 1.5859375 C3.97074219 1.72257813 3.00007812 1.85921875 2 2 C1.67 2.66 1.34 3.32 1 4 C0.67 2.68 0.34 1.36 0 0 Z " fill="#FFFFFF" transform="translate(197,218)"/>
<path d="M0 0 C0.33 0 0.66 0 1 0 C1 6.27 1 12.54 1 19 C0.67 19 0.34 19 0 19 C0 12.73 0 6.46 0 0 Z " fill="#FFFFFF" transform="translate(51,201)"/>
<path d="M0 0 C7.48291572 6.15034169 7.48291572 6.15034169 10 10 C5.86360664 8.40907948 2.76786752 5.39525082 0 2 C0 1.34 0 0.68 0 0 Z " fill="#FFFFFF" transform="translate(123,136)"/>
<path d="M0 0 C0.33 0 0.66 0 1 0 C0.67 5.94 0.34 11.88 0 18 C-0.33 18 -0.66 18 -1 18 C-1.02707139 15.75006641 -1.04642829 13.50003905 -1.0625 11.25 C-1.07410156 9.99703125 -1.08570313 8.7440625 -1.09765625 7.453125 C-1.02021027 4.71463499 -0.82780815 2.58119707 0 0 Z " fill="#FFFFFF" transform="translate(136,83)"/>
<path d="M0 0 C6.27 0 12.54 0 19 0 C19 0.33 19 0.66 19 1 C12.73 1 6.46 1 0 1 C0 0.67 0 0.34 0 0 Z " fill="#FFFFFF" transform="translate(166,27)"/>
<path d="M0 0 C0.33 0 0.66 0 1 0 C1 5.94 1 11.88 1 18 C0.67 18 0.34 18 0 18 C0 12.06 0 6.12 0 0 Z " fill="#FFFFFF" transform="translate(62,201)"/>
<path d="M0 0 C0.33 0 0.66 0 1 0 C1 5.61 1 11.22 1 17 C0.67 17 0.34 17 0 17 C0 11.39 0 5.78 0 0 Z " fill="#FFFFFF" transform="translate(274,211)"/>
<path d="M0 0 C0 3 0 3 -1.3125 4.60546875 C-1.869375 5.12753906 -2.42625 5.64960938 -3 6.1875 C-3.556875 6.71730469 -4.11375 7.24710938 -4.6875 7.79296875 C-5.120625 8.19128906 -5.55375 8.58960938 -6 9 C-6.66 8.67 -7.32 8.34 -8 8 C-5.36 5.36 -2.72 2.72 0 0 Z " fill="#FFFFFF" transform="translate(214,125)"/>
<path d="M0 0 C2.05279359 4.10558718 2.2216942 5.80206685 2.125 10.25 C2.10695312 11.32765625 2.08890625 12.4053125 2.0703125 13.515625 C2.03550781 14.74539062 2.03550781 14.74539062 2 16 C1.67 16 1.34 16 1 16 C0.67 10.72 0.34 5.44 0 0 Z " fill="#FFFFFF" transform="translate(210,84)"/>
<path d="M0 0 C0.33 0 0.66 0 1 0 C1.10251672 5.12583611 1.03590199 9.94997778 0 15 C-0.33 15 -0.66 15 -1 15 C-0.67 10.05 -0.34 5.1 0 0 Z " fill="#FFFFFF" transform="translate(226,90)"/>
<path d="M0 0 C4.95 0 9.9 0 15 0 C15 0.33 15 0.66 15 1 C10.05 1 5.1 1 0 1 C0 0.67 0 0.34 0 0 Z " fill="#FFFFFF" transform="translate(298,230)"/>
<path d="M0 0 C0.66 0.33 1.32 0.66 2 1 C-2.75 6.75 -2.75 6.75 -5 9 C-4.5206753 4.68607774 -3.2542015 2.83430453 0 0 Z " fill="#FFFFFF" transform="translate(125,194)"/>
<path d="M0 0 C1.14926266 0.95421808 2.29430541 1.91352045 3.4375 2.875 C4.07558594 3.40867187 4.71367187 3.94234375 5.37109375 4.4921875 C7 6 7 6 8 8 C4.63820226 6.55922954 2.40843732 4.75249979 0 2 C0 1.34 0 0.68 0 0 Z " fill="#FFFFFF" transform="translate(143,118)"/>
<path d="M0 0 C0 3 0 3 -2.5 5.6875 C-3.325 6.450625 -4.15 7.21375 -5 8 C-5.66 7.67 -6.32 7.34 -7 7 C-4.69 4.69 -2.38 2.38 0 0 Z " fill="#FFFFFF" transform="translate(203,115)"/>
<path d="M0 0 C2.10827055 3.16240582 2.33817465 4.50657469 2.625 8.1875 C2.69976562 9.08855469 2.77453125 9.98960938 2.8515625 10.91796875 C2.90054687 11.60503906 2.94953125 12.29210937 3 13 C2.67 13 2.34 13 2 13 C1.66127487 11.58461283 1.32925376 10.16762037 1 8.75 C0.814375 7.96109375 0.62875 7.1721875 0.4375 6.359375 C0 4 0 4 0 0 Z " fill="#FFFFFF" transform="translate(271,66)"/>
<path d="M0 0 C1.58294782 -0.05437607 3.16644256 -0.09296271 4.75 -0.125 C5.63171875 -0.14820313 6.5134375 -0.17140625 7.421875 -0.1953125 C10 0 10 0 14 2 C7.07 1.505 7.07 1.505 0 1 C0 0.67 0 0.34 0 0 Z " fill="#FFFFFF" transform="translate(177,16)"/>
<path d="M0 0 C0.90105469 0.01804687 1.80210937 0.03609375 2.73046875 0.0546875 C3.41753906 0.07789063 4.10460937 0.10109375 4.8125 0.125 C4.8125 0.455 4.8125 0.785 4.8125 1.125 C-1.6225 1.62 -1.6225 1.62 -8.1875 2.125 C-4.87379 -0.08414 -3.8428979 -0.09981553 0 0 Z " fill="#FFFFFF" transform="translate(168.1875,15.875)"/>
<path d="M0 0 C4.62 0 9.24 0 14 0 C14 0.33 14 0.66 14 1 C9.38 1 4.76 1 0 1 C0 0.67 0 0.34 0 0 Z " fill="#FFFFFF" transform="translate(168,54)"/>
<path d="M0 0 C1.85625 -0.061875 1.85625 -0.061875 3.75 -0.125 C4.79414063 -0.15980469 4.79414063 -0.15980469 5.859375 -0.1953125 C8 0 8 0 12 2 C8.04 1.67 4.08 1.34 0 1 C0 0.67 0 0.34 0 0 Z " fill="#FFFFFF" transform="translate(132,201)"/>
<path d="M0 0 C2.31 0 4.62 0 7 0 C7 2.31 7 4.62 7 7 C6.67 7 6.34 7 6 7 C6 5.02 6 3.04 6 1 C4.02 1 2.04 1 0 1 C0 0.67 0 0.34 0 0 Z " fill="#FFFFFF" transform="translate(20,200)"/>
<path d="M0 0 C4.29 0 8.58 0 13 0 C13 0.33 13 0.66 13 1 C8.71 1 4.42 1 0 1 C0 0.67 0 0.34 0 0 Z " fill="#FFFFFF" transform="translate(299,190)"/>
<path d="M0 0 C4.29 0 8.58 0 13 0 C13 0.33 13 0.66 13 1 C8.71 1 4.42 1 0 1 C0 0.67 0 0.34 0 0 Z " fill="#FFFFFF" transform="translate(169,171)"/>
<path d="M0 0 C3.93846154 3.32307692 3.93846154 3.32307692 4.25 6.75 C4.1675 7.4925 4.085 8.235 4 9 C2.47700477 6.06279492 1.19899698 3.0831351 0 0 Z " fill="#FFFFFF" transform="translate(288,201)"/>
<path d="M0 0 C-3.50776784 1.60355101 -6.14354879 2.22036864 -10 2 C-3.72972973 -1.24324324 -3.72972973 -1.24324324 0 0 Z " fill="#FFFFFF" transform="translate(190,128)"/>
<path d="M0 0 C2.29633824 3.44450737 2.54016485 5.93812283 3 10 C-0.00617269 6.99382731 0.40414684 4.17618402 0 0 Z " fill="#FFFFFF" transform="translate(249,70)"/>
<path d="M0 0 C3.36720387 1.39332574 4.9859524 2.9789286 7 6 C3.63279613 4.60667426 2.0140476 3.0210714 0 0 Z " fill="#FFFFFF" transform="translate(196,65)"/>
<path d="M0 0 C0 0.99 0 1.98 0 3 C-2.5 5.1875 -2.5 5.1875 -5 7 C-3.70700306 4.11562221 -2.34058637 2.12780579 0 0 Z " fill="#FFFFFF" transform="translate(110,31)"/>
<path d="M0 0 C3.63 0 7.26 0 11 0 C11 0.33 11 0.66 11 1 C7.37 1 3.74 1 0 1 C0 0.67 0 0.34 0 0 Z " fill="#FFFFFF" transform="translate(80,231)"/>
<path d="M0 0 C0.33 0 0.66 0 1 0 C1 1.98 1 3.96 1 6 C2.98 6.495 2.98 6.495 5 7 C3.35 7 1.7 7 0 7 C0 4.69 0 2.38 0 0 Z " fill="#FFFFFF" transform="translate(111,192)"/>
<path d="M0 0 C0 3 0 3 -1.5 4.6875 C-1.995 5.120625 -2.49 5.55375 -3 6 C-3.66 5.67 -4.32 5.34 -5 5 C-3.35 3.35 -1.7 1.7 0 0 Z " fill="#FFFFFF" transform="translate(243,152)"/>
<path d="M0 0 C2.12508244 3.18762365 2.5020163 5.26512223 3 9 C0.23776722 6.23776722 0.42143709 3.79293383 0 0 Z " fill="#FFFFFF" transform="translate(111,112)"/>
<path d="M0 0 C2.15377564 2.62198774 3.40072174 4.64404172 4 8 C1.10067643 5.60490662 0.49831724 3.68754757 0 0 Z " fill="#FFFFFF" transform="translate(128,112)"/>
<path d="M0 0 C0.33 0.99 0.66 1.98 1 3 C-0.4375 5.6875 -0.4375 5.6875 -2 8 C-2.33 7.34 -2.66 6.68 -3 6 C-2.06553465 3.96855359 -1.06775224 1.96466413 0 0 Z " fill="#FFFFFF" transform="translate(209,104)"/>
<path d="M0 0 C1.231394 3.69418201 0.64432764 6.2056261 0 10 C-0.33 10 -0.66 10 -1 10 C-1.125 2.25 -1.125 2.25 0 0 Z " fill="#FFFFFF" transform="translate(140,83)"/>
<path d="M0 0 C2.4294516 3.6441774 2.16179575 5.71241272 2 10 C1.67 10 1.34 10 1 10 C0.67 6.7 0.34 3.4 0 0 Z " fill="#FFFFFF" transform="translate(224,80)"/>
<path d="M0 0 C0.33 0 0.66 0 1 0 C1 3.63 1 7.26 1 11 C0.67 11 0.34 11 0 11 C0 7.37 0 3.74 0 0 Z " fill="#FFFFFF" transform="translate(274,79)"/>
<path d="M0 0 C2.89932357 2.39509338 3.50168276 4.31245243 4 8 C1.84622436 5.37801226 0.59927826 3.35595828 0 0 Z " fill="#FFFFFF" transform="translate(219,69)"/>
<path d="M0 0 C1.65 1.65 3.3 3.3 5 5 C4.67 5.66 4.34 6.32 4 7 C0 2.25 0 2.25 0 0 Z " fill="#FFFFFF" transform="translate(214,62)"/>
<path d="M0 0 C2.64 0 5.28 0 8 0 C7.67 0.99 7.34 1.98 7 3 C7 2.34 7 1.68 7 1 C4.69 1 2.38 1 0 1 C0 0.67 0 0.34 0 0 Z " fill="#FFFFFF" transform="translate(232,217)"/>
<path d="M0 0 C0.33 0 0.66 0 1 0 C1 1.65 1 3.3 1 5 C2.98 5.495 2.98 5.495 5 6 C3.35 6 1.7 6 0 6 C0 4.02 0 2.04 0 0 Z " fill="#FFFFFF" transform="translate(162,193)"/>
<path d="M0 0 C3.3 0 6.6 0 10 0 C10 0.33 10 0.66 10 1 C6.7 1 3.4 1 0 1 C0 0.67 0 0.34 0 0 Z " fill="#FFFFFF" transform="translate(131,191)"/>
<path d="M0 0 C3.3 0 6.6 0 10 0 C10 0.33 10 0.66 10 1 C6.7 1 3.4 1 0 1 C0 0.67 0 0.34 0 0 Z " fill="#FFFFFF" transform="translate(170,130)"/>
<path d="M0 0 C0.33 0 0.66 0 1 0 C0.67 2.97 0.34 5.94 0 9 C-0.95904856 5.16380575 -0.91892116 3.67568464 0 0 Z " fill="#FFFFFF" transform="translate(273,109)"/>
<path d="M0 0 C0.93065133 2.60582371 1.14917407 3.64198224 0.0625 6.25 C-0.4634375 7.11625 -0.4634375 7.11625 -1 8 C-2 6 -2 6 -1.0625 2.875 C-0.5365625 1.451875 -0.5365625 1.451875 0 0 Z " fill="#FFFFFF" transform="translate(224,105)"/>
<path d="M0 0 C0.33 0 0.66 0 1 0 C1 3.3 1 6.6 1 10 C0.67 10 0.34 10 0 10 C0 6.7 0 3.4 0 0 Z " fill="#FFFFFF" transform="translate(274,99)"/>
<path d="M0 0 C1.65 1.32 3.3 2.64 5 4 C4.67 4.66 4.34 5.32 4 6 C2.62437146 4.71034824 1.29233607 3.37310707 0 2 C0 1.34 0 0.68 0 0 Z " fill="#FFFFFF" transform="translate(223,47)"/>
<path d="M0 0 C2.97 0 5.94 0 9 0 C9 0.33 9 0.66 9 1 C6.03 1 3.06 1 0 1 C0 0.67 0 0.34 0 0 Z " fill="#FFFFFF" transform="translate(81,223)"/>
<path d="M0 0 C2.475 0.495 2.475 0.495 5 1 C4.67 2.32 4.34 3.64 4 5 C3.67 4.01 3.34 3.02 3 2 C2.01 1.34 1.02 0.68 0 0 Z " fill="#FFFFFF" transform="translate(135,216)"/>
<path d="M0 0 C1.65 1.65 3.3 3.3 5 5 C3.0625 4.1875 3.0625 4.1875 1 3 C0.67 2.01 0.34 1.02 0 0 Z " fill="#FFFFFF" transform="translate(121,208)"/>
<path d="M0 0 C2.97 0 5.94 0 9 0 C9 0.33 9 0.66 9 1 C6.03 1 3.06 1 0 1 C0 0.67 0 0.34 0 0 Z " fill="#FFFFFF" transform="translate(178,160)"/>
<path d="M0 0 C2.97 0 5.94 0 9 0 C9 0.33 9 0.66 9 1 C6.03 1 3.06 1 0 1 C0 0.67 0 0.34 0 0 Z " fill="#FFFFFF" transform="translate(163,160)"/>
<path d="M0 0 C0.93065133 2.60582371 1.14917407 3.64198224 0.0625 6.25 C-0.4634375 7.11625 -0.4634375 7.11625 -1 8 C-0.67 5.36 -0.34 2.72 0 0 Z " fill="#FFFFFF" transform="translate(78,68)"/>
<path d="M0 0 C0.66 0.33 1.32 0.66 2 1 C0.35 2.32 -1.3 3.64 -3 5 C-1.125 1.125 -1.125 1.125 0 0 Z " fill="#FFFFFF" transform="translate(147,64)"/>
<path d="M0 0 C2.64 0 5.28 0 8 0 C8 0.33 8 0.66 8 1 C5.36 1 2.72 1 0 1 C0 0.67 0 0.34 0 0 Z " fill="#FFFFFF" transform="translate(19,232)"/>
<path d="M0 0 C2.64 0 5.28 0 8 0 C8 0.33 8 0.66 8 1 C5.36 1 2.72 1 0 1 C0 0.67 0 0.34 0 0 Z " fill="#FFFFFF" transform="translate(227,231)"/>
<path d="M0 0 C2.64 0 5.28 0 8 0 C8 0.33 8 0.66 8 1 C5.36 1 2.72 1 0 1 C0 0.67 0 0.34 0 0 Z " fill="#FFFFFF" transform="translate(200,231)"/>
<path d="M0 0 C2.64 0 5.28 0 8 0 C8 0.33 8 0.66 8 1 C5.36 1 2.72 1 0 1 C0 0.67 0 0.34 0 0 Z " fill="#FFFFFF" transform="translate(52,231)"/>
<path d="M0 0 C2.64 0 5.28 0 8 0 C8 0.33 8 0.66 8 1 C5.36 1 2.72 1 0 1 C0 0.67 0 0.34 0 0 Z " fill="#FFFFFF" transform="translate(200,223)"/>
<path d="M0 0 C1.98 0 3.96 0 6 0 C4.02 0.99 4.02 0.99 2 2 C1.34 1.34 0.68 0.68 0 0 Z " fill="#FFFFFF" transform="translate(222,211)"/>
<path d="M0 0 C2.64 0 5.28 0 8 0 C8 0.33 8 0.66 8 1 C5.36 1 2.72 1 0 1 C0 0.67 0 0.34 0 0 Z " fill="#FFFFFF" transform="translate(181,206)"/>
<path d="M0 0 C0.33 0 0.66 0 1 0 C1.33 2.31 1.66 4.62 2 7 C1.34 6.67 0.68 6.34 0 6 C0 4.02 0 2.04 0 0 Z " fill="#FFFFFF" transform="translate(72,205)"/>
<path d="M0 0 C0.33 0 0.66 0 1 0 C1 1.65 1 3.3 1 5 C-0.32 4.67 -1.64 4.34 -3 4 C-2.01 4 -1.02 4 0 4 C0 2.68 0 1.36 0 0 Z " fill="#FFFFFF" transform="translate(103,194)"/>
<path d="M0 0 C1.32 0.99 2.64 1.98 4 3 C3.67 3.66 3.34 4.32 3 5 C1.5 3.625 1.5 3.625 0 2 C0 1.34 0 0.68 0 0 Z " fill="#FFFFFF" transform="translate(104,149)"/>
<path d="M0 0 C0.33 0.99 0.66 1.98 1 3 C0.01 3.99 -0.98 4.98 -2 6 C-1.34 4.02 -0.68 2.04 0 0 Z " fill="#FFFFFF" transform="translate(221,113)"/>
<path d="M0 0 C0.33 0 0.66 0 1 0 C1 2.64 1 5.28 1 8 C0.67 8 0.34 8 0 8 C0 5.36 0 2.72 0 0 Z " fill="#FFFFFF" transform="translate(139,94)"/>
<path d="M0 0 C0.33 0 0.66 0 1 0 C1 2.64 1 5.28 1 8 C0.67 8 0.34 8 0 8 C0 5.36 0 2.72 0 0 Z " fill="#FFFFFF" transform="translate(275,90)"/>
<path d="M0 0 C2 3 2 3 1.625 5.1875 C1.315625 6.0846875 1.315625 6.0846875 1 7 C0.67 4.69 0.34 2.38 0 0 Z " fill="#FFFFFF" transform="translate(238,71)"/>
<path d="M0 0 C0 0.99 0 1.98 0 3 C-0.99 3.66 -1.98 4.32 -3 5 C-1.125 1.125 -1.125 1.125 0 0 Z " fill="#FFFFFF" transform="translate(138,59)"/>
<path d="M0 0 C2.31 0.33 4.62 0.66 7 1 C4 2 4 2 1.8125 1.0625 C1.214375 0.711875 0.61625 0.36125 0 0 Z " fill="#FFFFFF" transform="translate(180,58)"/>
<path d="M0 0 C1.32 0.99 2.64 1.98 4 3 C3.67 3.66 3.34 4.32 3 5 C1.5 3.625 1.5 3.625 0 2 C0 1.34 0 0.68 0 0 Z " fill="#FFFFFF" transform="translate(234,44)"/>
<path d="M0 0 C3.875 1.75 3.875 1.75 5 4 C1.125 2.25 1.125 2.25 0 0 Z " fill="#FFFFFF" transform="translate(217,42)"/>
<path d="M0 0 C1.32 0.99 2.64 1.98 4 3 C3.67 3.66 3.34 4.32 3 5 C1.5 3.625 1.5 3.625 0 2 C0 1.34 0 0.68 0 0 Z " fill="#FFFFFF" transform="translate(237,28)"/>
<path d="M0 0 C2.64 0 5.28 0 8 0 C8 0.33 8 0.66 8 1 C5.36 1 2.72 1 0 1 C0 0.67 0 0.34 0 0 Z " fill="#FFFFFF" transform="translate(158,28)"/>
<path d="M0 0 C2.31 0 4.62 0 7 0 C7 0.33 7 0.66 7 1 C4.69 1 2.38 1 0 1 C0 0.67 0 0.34 0 0 Z " fill="#FFFFFF" transform="translate(327,230)"/>
<path d="M0 0 C2.31 0 4.62 0 7 0 C7 0.33 7 0.66 7 1 C4.69 1 2.38 1 0 1 C0 0.67 0 0.34 0 0 Z " fill="#FFFFFF" transform="translate(159,230)"/>
<path d="M0 0 C2.31 0 4.62 0 7 0 C7 0.33 7 0.66 7 1 C4.69 1 2.38 1 0 1 C0 0.67 0 0.34 0 0 Z " fill="#FFFFFF" transform="translate(108,230)"/>
<path d="M0 0 C0 0.99 0 1.98 0 3 C-0.99 3 -1.98 3 -3 3 C-2.01 2.01 -1.02 1.02 0 0 Z " fill="#FFFFFF" transform="translate(215,225)"/>
<path d="M0 0 C1.32 1.32 2.64 2.64 4 4 C2.68 3.34 1.36 2.68 0 2 C0 1.34 0 0.68 0 0 Z " fill="#FFFFFF" transform="translate(120,224)"/>
<path d="M0 0 C2.31 0 4.62 0 7 0 C7 0.33 7 0.66 7 1 C4.69 1 2.38 1 0 1 C0 0.67 0 0.34 0 0 Z " fill="#FFFFFF" transform="translate(53,223)"/>
<path d="M0 0 C2.31 0 4.62 0 7 0 C7 0.33 7 0.66 7 1 C4.69 1 2.38 1 0 1 C0 0.67 0 0.34 0 0 Z " fill="#FFFFFF" transform="translate(233,209)"/>
<path d="M0 0 C1.98 0.99 1.98 0.99 4 2 C3.67 2.66 3.34 3.32 3 4 C2.01 2.68 1.02 1.36 0 0 Z " fill="#FFFFFF" transform="translate(143,209)"/>
<path d="M0 0 C0.33 0.66 0.66 1.32 1 2 C0.01 2.99 -0.98 3.98 -2 5 C-1.34 3.35 -0.68 1.7 0 0 Z " fill="#FFFFFF" transform="translate(221,204)"/>
<path d="M0 0 C2.31 0 4.62 0 7 0 C7 0.33 7 0.66 7 1 C4.69 1 2.38 1 0 1 C0 0.67 0 0.34 0 0 Z " fill="#FFFFFF" transform="translate(177,133)"/>
<path d="M0 0 C2.31 0 4.62 0 7 0 C7 0.33 7 0.66 7 1 C4.69 1 2.38 1 0 1 C0 0.67 0 0.34 0 0 Z " fill="#FFFFFF" transform="translate(166,133)"/>
<path d="M0 0 C2.97 0.495 2.97 0.495 6 1 C4.125 1.625 4.125 1.625 2 2 C1.34 1.34 0.68 0.68 0 0 Z " fill="#FFFFFF" transform="translate(160,131)"/>
<path d="M0 0 C1.485 0.99 1.485 0.99 3 2 C2.67 2.99 2.34 3.98 2 5 C1.34 3.35 0.68 1.7 0 0 Z " fill="#FFFFFF" transform="translate(107,104)"/>
<path d="M0 0 C0.33 0 0.66 0 1 0 C1 2.31 1 4.62 1 7 C0.67 7 0.34 7 0 7 C0 4.69 0 2.38 0 0 Z " fill="#FFFFFF" transform="translate(76,76)"/>
<path d="M0 0 C0.99 0.99 1.98 1.98 3 3 C2.67 3.66 2.34 4.32 2 5 C1.34 3.35 0.68 1.7 0 0 Z " fill="#FFFFFF" transform="translate(231,57)"/>
<path d="M0 0 C1.98 0.99 1.98 0.99 4 2 C3.67 2.66 3.34 3.32 3 4 C2.01 2.68 1.02 1.36 0 0 Z " fill="#FFFFFF" transform="translate(209,57)"/>
<path d="M0 0 C1.98 0.99 1.98 0.99 4 2 C3.67 2.66 3.34 3.32 3 4 C2.01 2.68 1.02 1.36 0 0 Z " fill="#FFFFFF" transform="translate(109,22)"/>
<path d="M0 0 C0.99 0 1.98 0 3 0 C2.67 1.32 2.34 2.64 2 4 C2 3.01 2 2.02 2 1 C1.34 0.67 0.68 0.34 0 0 Z " fill="#FFFFFF" transform="translate(88,219)"/>
<path d="M0 0 C0.33 0 0.66 0 1 0 C1 1.98 1 3.96 1 6 C0.67 6 0.34 6 0 6 C0 4.02 0 2.04 0 0 Z " fill="#FFFFFF" transform="translate(26,216)"/>
<path d="M0 0 C1.98 0 3.96 0 6 0 C6 0.33 6 0.66 6 1 C4.02 1 2.04 1 0 1 C0 0.67 0 0.34 0 0 Z " fill="#FFFFFF" transform="translate(330,206)"/>
<path d="M0 0 C0.99 0.33 1.98 0.66 3 1 C1.02 1.99 1.02 1.99 -1 3 C-0.67 2.01 -0.34 1.02 0 0 Z " fill="#FFFFFF" transform="translate(199,206)"/>
<path d="M0 0 C0 0.99 0 1.98 0 3 C-0.99 3.495 -0.99 3.495 -2 4 C-1.34 2.68 -0.68 1.36 0 0 Z " fill="#FFFFFF" transform="translate(247,147)"/>
<path d="M0 0 C1.98 0 3.96 0 6 0 C6 0.33 6 0.66 6 1 C4.02 1 2.04 1 0 1 C0 0.67 0 0.34 0 0 Z " fill="#FFFFFF" transform="translate(172,145)"/>
<path d="M0 0 C1.98 0 3.96 0 6 0 C6 0.33 6 0.66 6 1 C4.02 1 2.04 1 0 1 C0 0.67 0 0.34 0 0 Z " fill="#FFFFFF" transform="translate(165,144)"/>
<path d="M0 0 C1.485 0.99 1.485 0.99 3 2 C2.67 2.66 2.34 3.32 2 4 C1.34 2.68 0.68 1.36 0 0 Z " fill="#FFFFFF" transform="translate(114,141)"/>
<path d="M0 0 C1.485 0.99 1.485 0.99 3 2 C2.67 2.66 2.34 3.32 2 4 C1.34 2.68 0.68 1.36 0 0 Z " fill="#FFFFFF" transform="translate(134,123)"/>
<path d="M0 0 C0 0.99 0 1.98 0 3 C-0.99 3.495 -0.99 3.495 -2 4 C-1.34 2.68 -0.68 1.36 0 0 Z " fill="#FFFFFF" transform="translate(217,121)"/>
<path d="M0 0 C0.33 0 0.66 0 1 0 C1 1.98 1 3.96 1 6 C0.67 6 0.34 6 0 6 C0 4.02 0 2.04 0 0 Z " fill="#FFFFFF" transform="translate(76,105)"/>
<path d="M0 0 C0.66 0.66 1.32 1.32 2 2 C1.67 2.99 1.34 3.98 1 5 C0.67 3.35 0.34 1.7 0 0 Z " fill="#FFFFFF" transform="translate(211,76)"/>
<path d="M0 0 C0.33 0.99 0.66 1.98 1 3 C0.34 3.66 -0.32 4.32 -1 5 C-0.67 3.35 -0.34 1.7 0 0 Z " fill="#FFFFFF" transform="translate(128,73)"/>
<path d="M0 0 C1.485 0.99 1.485 0.99 3 2 C2.67 2.66 2.34 3.32 2 4 C1.34 2.68 0.68 1.36 0 0 Z " fill="#FFFFFF" transform="translate(228,53)"/>
<path d="M0 0 C0.66 0.33 1.32 0.66 2 1 C0.02 1.99 0.02 1.99 -2 3 C-1.34 2.01 -0.68 1.02 0 0 Z " fill="#FFFFFF" transform="translate(143,54)"/>
<path d="M0 0 C0 0.99 0 1.98 0 3 C-0.99 3.495 -0.99 3.495 -2 4 C-1.34 2.68 -0.68 1.36 0 0 Z " fill="#FFFFFF" transform="translate(104,38)"/>
<path d="M0 0 C1.485 0.99 1.485 0.99 3 2 C2.67 2.66 2.34 3.32 2 4 C1.34 2.68 0.68 1.36 0 0 Z " fill="#FFFFFF" transform="translate(244,36)"/>
<path d="M0 0 C0 0.99 0 1.98 0 3 C-0.99 3.495 -0.99 3.495 -2 4 C-1.34 2.68 -0.68 1.36 0 0 Z " fill="#FFFFFF" transform="translate(239,21)"/>
<path d="M0 0 C0 0.99 0 1.98 0 3 C-0.99 3.495 -0.99 3.495 -2 4 C-1.34 2.68 -0.68 1.36 0 0 Z " fill="#FFFFFF" transform="translate(157,18)"/>
<path d="M0 0 C1.65 0 3.3 0 5 0 C5 0.33 5 0.66 5 1 C3.35 1 1.7 1 0 1 C0 0.67 0 0.34 0 0 Z " fill="#FFFFFF" transform="translate(133,232)"/>
<path d="M0 0 C0.99 0.99 1.98 1.98 3 3 C2.01 2.67 1.02 2.34 0 2 C0 1.34 0 0.68 0 0 Z " fill="#FFFFFF" transform="translate(74,226)"/>
<path d="M0 0 C0.66 1.32 1.32 2.64 2 4 C1.34 3.67 0.68 3.34 0 3 C0 2.01 0 1.02 0 0 Z " fill="#FFFFFF" transform="translate(72,222)"/>
<path d="M0 0 C1.32 0.33 2.64 0.66 4 1 C2.68 1.33 1.36 1.66 0 2 C0 1.34 0 0.68 0 0 Z " fill="#FFFFFF" transform="translate(330,222)"/>
<path d="M0 0 C0.33 0.99 0.66 1.98 1 3 C0.01 3.495 0.01 3.495 -1 4 C-0.67 2.68 -0.34 1.36 0 0 Z " fill="#FFFFFF" transform="translate(217,221)"/>
<path d="M0 0 C0.33 0.99 0.66 1.98 1 3 C0.01 3.495 0.01 3.495 -1 4 C-0.67 2.68 -0.34 1.36 0 0 Z " fill="#FFFFFF" transform="translate(61,219)"/>
<path d="M0 0 C0.33 0 0.66 0 1 0 C1 1.65 1 3.3 1 5 C0.67 5 0.34 5 0 5 C0 3.35 0 1.7 0 0 Z " fill="#FFFFFF" transform="translate(149,217)"/>
<path d="M0 0 C0.33 0 0.66 0 1 0 C1 1.65 1 3.3 1 5 C0.67 5 0.34 5 0 5 C0 3.35 0 1.7 0 0 Z " fill="#FFFFFF" transform="translate(188,212)"/>
<path d="M0 0 C0.99 0.99 1.98 1.98 3 3 C2.01 2.67 1.02 2.34 0 2 C0 1.34 0 0.68 0 0 Z " fill="#FFFFFF" transform="translate(74,212)"/>
<path d="M0 0 C1.32 0.33 2.64 0.66 4 1 C2.68 1.33 1.36 1.66 0 2 C0 1.34 0 0.68 0 0 Z " fill="#FFFFFF" transform="translate(92,211)"/>
<path d="M0 0 C1.65 0 3.3 0 5 0 C5 0.33 5 0.66 5 1 C3.35 1 1.7 1 0 1 C0 0.67 0 0.34 0 0 Z " fill="#FFFFFF" transform="translate(228,210)"/>
<path d="M0 0 C1.65 0 3.3 0 5 0 C5 0.33 5 0.66 5 1 C3.35 1 1.7 1 0 1 C0 0.67 0 0.34 0 0 Z " fill="#FFFFFF" transform="translate(330,198)"/>
<path d="M0 0 C0.99 0.33 1.98 0.66 3 1 C1.68 1.33 0.36 1.66 -1 2 C-0.67 1.34 -0.34 0.68 0 0 Z " fill="#FFFFFF" transform="translate(128,192)"/>
<path d="M0 0 C0.33 0 0.66 0 1 0 C1 1.65 1 3.3 1 5 C0.67 5 0.34 5 0 5 C0 3.35 0 1.7 0 0 Z " fill="#FFFFFF" transform="translate(195,162)"/>
<path d="M0 0 C0.33 0 0.66 0 1 0 C1 1.65 1 3.3 1 5 C0.67 5 0.34 5 0 5 C0 3.35 0 1.7 0 0 Z " fill="#FFFFFF" transform="translate(237,158)"/>
<path d="M0 0 C1.65 0 3.3 0 5 0 C5 0.33 5 0.66 5 1 C3.35 1 1.7 1 0 1 C0 0.67 0 0.34 0 0 Z " fill="#FFFFFF" transform="translate(187,159)"/>
<path d="M0 0 C0.99 0.33 1.98 0.66 3 1 C2.67 1.66 2.34 2.32 2 3 C1.34 2.01 0.68 1.02 0 0 Z " fill="#FFFFFF" transform="translate(129,156)"/>
<path d="M0 0 C1.65 0 3.3 0 5 0 C5 0.33 5 0.66 5 1 C3.35 1 1.7 1 0 1 C0 0.67 0 0.34 0 0 Z " fill="#FFFFFF" transform="translate(181,144)"/>
<path d="M0 0 C1.98 0.99 1.98 0.99 4 2 C2.68 1.67 1.36 1.34 0 1 C0 0.67 0 0.34 0 0 Z " fill="#FFFFFF" transform="translate(159,126)"/>
<path d="M0 0 C0.99 0.33 1.98 0.66 3 1 C1.68 1.33 0.36 1.66 -1 2 C-0.67 1.34 -0.34 0.68 0 0 Z " fill="#FFFFFF" transform="translate(103,103)"/>
<path d="M0 0 C1.65 0 3.3 0 5 0 C5 0.33 5 0.66 5 1 C3.35 1 1.7 1 0 1 C0 0.67 0 0.34 0 0 Z " fill="#FFFFFF" transform="translate(185,28)"/>
<path d="M0 0 C0.99 0.33 1.98 0.66 3 1 C2.01 1 1.02 1 0 1 C0 0.67 0 0.34 0 0 Z " fill="#FFFFFF" transform="translate(223,229)"/>
<path d="M0 0 C0.66 0.33 1.32 0.66 2 1 C1.01 1 0.02 1 -1 1 C-0.67 0.67 -0.34 0.34 0 0 Z " fill="#FFFFFF" transform="translate(142,229)"/>
<path d="M0 0 C0.99 0.33 1.98 0.66 3 1 C2.01 1 1.02 1 0 1 C0 0.67 0 0.34 0 0 Z " fill="#FFFFFF" transform="translate(48,229)"/>
<path d="M0 0 C0.66 0.33 1.32 0.66 2 1 C1.01 1 0.02 1 -1 1 C-0.67 0.67 -0.34 0.34 0 0 Z " fill="#FFFFFF" transform="translate(30,229)"/>
<path d="M0 0 C1 4 1 4 1 4 Z " fill="#FFFFFF" transform="translate(117,225)"/>
<path d="M0 0 C0.99 0.495 0.99 0.495 2 1 C1.67 1.66 1.34 2.32 1 3 C0.67 2.01 0.34 1.02 0 0 Z " fill="#FFFFFF" transform="translate(45,225)"/>
<path d="M0 0 C0 3 0 3 0 3 Z " fill="#FFFFFF" transform="translate(34,225)"/>
<path d="M0 0 C4 1 4 1 4 1 Z " fill="#FFFFFF" transform="translate(130,221)"/>
<path d="M0 0 C1 4 1 4 1 4 Z " fill="#FFFFFF" transform="translate(119,220)"/>
<path d="M0 0 C1 4 1 4 1 4 Z " fill="#FFFFFF" transform="translate(98,219)"/>
<path d="M0 0 C0.99 0.33 1.98 0.66 3 1 C2.01 1 1.02 1 0 1 C0 0.67 0 0.34 0 0 Z " fill="#FFFFFF" transform="translate(127,219)"/>
<path d="M0 0 C4 1 4 1 4 1 Z " fill="#FFFFFF" transform="translate(122,217)"/>
<path d="M0 0 C4 1 4 1 4 1 Z " fill="#FFFFFF" transform="translate(13,216)"/>
<path d="M0 0 C4 1 4 1 4 1 Z " fill="#FFFFFF" transform="translate(131,215)"/>
<path d="M0 0 C0.99 0.495 0.99 0.495 2 1 C1.67 1.66 1.34 2.32 1 3 C0.67 2.01 0.34 1.02 0 0 Z " fill="#FFFFFF" transform="translate(95,214)"/>
<path d="M0 0 C1 4 1 4 1 4 Z " fill="#FFFFFF" transform="translate(218,209)"/>
<path d="M0 0 C1 4 1 4 1 4 Z " fill="#FFFFFF" transform="translate(275,207)"/>
<path d="M0 0 C0.99 0 1.98 0 3 0 C2.67 0.66 2.34 1.32 2 2 C1.34 1.34 0.68 0.68 0 0 Z " fill="#FFFFFF" transform="translate(236,206)"/>
<path d="M0 0 C0.99 0 1.98 0 3 0 C2.67 0.66 2.34 1.32 2 2 C1.34 1.34 0.68 0.68 0 0 Z " fill="#FFFFFF" transform="translate(87,206)"/>
<path d="M0 0 C4 1 4 1 4 1 Z " fill="#FFFFFF" transform="translate(232,205)"/>
<path d="M0 0 C0.99 0.495 0.99 0.495 2 1 C1.34 1.66 0.68 2.32 0 3 C0 2.01 0 1.02 0 0 Z " fill="#FFFFFF" transform="translate(130,202)"/>
<path d="M0 0 C1 4 1 4 1 4 Z " fill="#FFFFFF" transform="translate(118,201)"/>
<path d="M0 0 C4 1 4 1 4 1 Z " fill="#FFFFFF" transform="translate(16,201)"/>
<path d="M0 0 C4 1 4 1 4 1 Z " fill="#FFFFFF" transform="translate(252,198)"/>
<path d="M0 0 C4 1 4 1 4 1 Z " fill="#FFFFFF" transform="translate(173,198)"/>
<path d="M0 0 C4 1 4 1 4 1 Z " fill="#FFFFFF" transform="translate(64,198)"/>
<path d="M0 0 C1 4 1 4 1 4 Z " fill="#FFFFFF" transform="translate(43,194)"/>
<path d="M0 0 C0.99 0.33 1.98 0.66 3 1 C2.01 1.33 1.02 1.66 0 2 C0 1.34 0 0.68 0 0 Z " fill="#FFFFFF" transform="translate(325,190)"/>
<path d="M0 0 C0.99 0.33 1.98 0.66 3 1 C2.01 1.33 1.02 1.66 0 2 C0 1.34 0 0.68 0 0 Z " fill="#FFFFFF" transform="translate(106,190)"/>
<path d="M0 0 C4 1 4 1 4 1 Z " fill="#FFFFFF" transform="translate(159,159)"/>
<path d="M0 0 C0.99 0.495 0.99 0.495 2 1 C1.67 1.66 1.34 2.32 1 3 C0.67 2.01 0.34 1.02 0 0 Z " fill="#FFFFFF" transform="translate(112,158)"/>
<path d="M0 0 C4 1 4 1 4 1 Z " fill="#FFFFFF" transform="translate(155,158)"/>
<path d="M0 0 C0.99 0.495 0.99 0.495 2 1 C1.67 1.66 1.34 2.32 1 3 C0.67 2.01 0.34 1.02 0 0 Z " fill="#FFFFFF" transform="translate(98,157)"/>
<path d="M0 0 C0.99 0.33 1.98 0.66 3 1 C2.01 1 1.02 1 0 1 C0 0.67 0 0.34 0 0 Z " fill="#FFFFFF" transform="translate(125,153)"/>
<path d="M0 0 C0.99 0.33 1.98 0.66 3 1 C2.01 1 1.02 1 0 1 C0 0.67 0 0.34 0 0 Z " fill="#FFFFFF" transform="translate(134,147)"/>
<path d="M0 0 C0 3 0 3 0 3 Z " fill="#FFFFFF" transform="translate(249,144)"/>
<path d="M0 0 C4 1 4 1 4 1 Z " fill="#FFFFFF" transform="translate(161,143)"/>
<path d="M0 0 C0 3 0 3 0 3 Z " fill="#FFFFFF" transform="translate(251,141)"/>
<path d="M0 0 C0.99 0.495 0.99 0.495 2 1 C1.67 1.66 1.34 2.32 1 3 C0.67 2.01 0.34 1.02 0 0 Z " fill="#FFFFFF" transform="translate(111,137)"/>
<path d="M0 0 C0.99 0.33 1.98 0.66 3 1 C2.01 1 1.02 1 0 1 C0 0.67 0 0.34 0 0 Z " fill="#FFFFFF" transform="translate(147,136)"/>
<path d="M0 0 C0.66 0.33 1.32 0.66 2 1 C1.01 1 0.02 1 -1 1 C-0.67 0.67 -0.34 0.34 0 0 Z " fill="#FFFFFF" transform="translate(203,135)"/>
<path d="M0 0 C0.99 0.495 0.99 0.495 2 1 C1.67 1.66 1.34 2.32 1 3 C0.67 2.01 0.34 1.02 0 0 Z " fill="#FFFFFF" transform="translate(109,134)"/>
<path d="M0 0 C0.99 0.33 1.98 0.66 3 1 C2.01 1 1.02 1 0 1 C0 0.67 0 0.34 0 0 Z " fill="#FFFFFF" transform="translate(143,133)"/>
<path d="M0 0 C0.99 0.495 0.99 0.495 2 1 C1.67 1.66 1.34 2.32 1 3 C0.67 2.01 0.34 1.02 0 0 Z " fill="#FFFFFF" transform="translate(120,132)"/>
<path d="M0 0 C4 1 4 1 4 1 Z " fill="#FFFFFF" transform="translate(184,132)"/>
<path d="M0 0 C0.99 0.495 0.99 0.495 2 1 C1.67 1.66 1.34 2.32 1 3 C0.67 2.01 0.34 1.02 0 0 Z " fill="#FFFFFF" transform="translate(118,129)"/>
<path d="M0 0 C4 1 4 1 4 1 Z " fill="#FFFFFF" transform="translate(166,129)"/>
<path d="M0 0 C0.66 0.33 1.32 0.66 2 1 C1.01 1 0.02 1 -1 1 C-0.67 0.67 -0.34 0.34 0 0 Z " fill="#FFFFFF" transform="translate(199,125)"/>
<path d="M0 0 C0.99 0.495 0.99 0.495 2 1 C1.67 1.66 1.34 2.32 1 3 C0.67 2.01 0.34 1.02 0 0 Z " fill="#FFFFFF" transform="translate(132,120)"/>
<path d="M0 0 C1 4 1 4 1 4 Z " fill="#FFFFFF" transform="translate(271,118)"/>
<path d="M0 0 C0 3 0 3 0 3 Z " fill="#FFFFFF" transform="translate(207,117)"/>
<path d="M0 0 C1 4 1 4 1 4 Z " fill="#FFFFFF" transform="translate(78,116)"/>
<path d="M0 0 C0.99 0.495 0.99 0.495 2 1 C1.67 1.66 1.34 2.32 1 3 C0.67 2.01 0.34 1.02 0 0 Z " fill="#FFFFFF" transform="translate(141,115)"/>
<path d="M0 0 C0 3 0 3 0 3 Z " fill="#FFFFFF" transform="translate(209,114)"/>
<path d="M0 0 C1 4 1 4 1 4 Z " fill="#FFFFFF" transform="translate(77,112)"/>
<path d="M0 0 C0 3 0 3 0 3 Z " fill="#FFFFFF" transform="translate(205,112)"/>
<path d="M0 0 C1 4 1 4 1 4 Z " fill="#FFFFFF" transform="translate(213,103)"/>
<path d="M0 0 C1 4 1 4 1 4 Z " fill="#FFFFFF" transform="translate(136,101)"/>
<path d="M0 0 C1 4 1 4 1 4 Z " fill="#FFFFFF" transform="translate(210,100)"/>
<path d="M0 0 C1 4 1 4 1 4 Z " fill="#FFFFFF" transform="translate(213,81)"/>
<path d="M0 0 C0 3 0 3 0 3 Z " fill="#FFFFFF" transform="translate(144,75)"/>
<path d="M0 0 C0.99 0.495 0.99 0.495 2 1 C1.67 1.66 1.34 2.32 1 3 C0.67 2.01 0.34 1.02 0 0 Z " fill="#FFFFFF" transform="translate(208,71)"/>
<path d="M0 0 C0 3 0 3 0 3 Z " fill="#FFFFFF" transform="translate(142,70)"/>
<path d="M0 0 C0.99 0.495 0.99 0.495 2 1 C1.67 1.66 1.34 2.32 1 3 C0.67 2.01 0.34 1.02 0 0 Z " fill="#FFFFFF" transform="translate(206,68)"/>
<path d="M0 0 C0.99 0.33 1.98 0.66 3 1 C2.01 1 1.02 1 0 1 C0 0.67 0 0.34 0 0 Z " fill="#FFFFFF" transform="translate(190,61)"/>
<path d="M0 0 C0.66 0.33 1.32 0.66 2 1 C1.01 1 0.02 1 -1 1 C-0.67 0.67 -0.34 0.34 0 0 Z " fill="#FFFFFF" transform="translate(152,60)"/>
<path d="M0 0 C0.99 0.33 1.98 0.66 3 1 C2.01 1 1.02 1 0 1 C0 0.67 0 0.34 0 0 Z " fill="#FFFFFF" transform="translate(195,59)"/>
<path d="M0 0 C0.99 0.495 0.99 0.495 2 1 C1.67 1.66 1.34 2.32 1 3 C0.67 2.01 0.34 1.02 0 0 Z " fill="#FFFFFF" transform="translate(242,55)"/>
<path d="M0 0 C0.66 0.33 1.32 0.66 2 1 C1.01 1 0.02 1 -1 1 C-0.67 0.67 -0.34 0.34 0 0 Z " fill="#FFFFFF" transform="translate(147,51)"/>
<path d="M0 0 C0.99 0.495 0.99 0.495 2 1 C1.67 1.66 1.34 2.32 1 3 C0.67 2.01 0.34 1.02 0 0 Z " fill="#FFFFFF" transform="translate(238,49)"/>
<path d="M0 0 C0 3 0 3 0 3 Z " fill="#FFFFFF" transform="translate(99,45)"/>
<path d="M0 0 C4 1 4 1 4 1 Z " fill="#FFFFFF" transform="translate(162,44)"/>
<path d="M0 0 C0 3 0 3 0 3 Z " fill="#FFFFFF" transform="translate(101,42)"/>
<path d="M0 0 C0.99 0.33 1.98 0.66 3 1 C2.01 1 1.02 1 0 1 C0 0.67 0 0.34 0 0 Z " fill="#FFFFFF" transform="translate(213,39)"/>
<path d="M0 0 C0.99 0.33 1.98 0.66 3 1 C2.01 1 1.02 1 0 1 C0 0.67 0 0.34 0 0 Z " fill="#FFFFFF" transform="translate(207,35)"/>
<path d="M0 0 C0.99 0.33 1.98 0.66 3 1 C2.01 1 1.02 1 0 1 C0 0.67 0 0.34 0 0 Z " fill="#FFFFFF" transform="translate(221,32)"/>
<path d="M0 0 C0.99 0.33 1.98 0.66 3 1 C2.01 1 1.02 1 0 1 C0 0.67 0 0.34 0 0 Z " fill="#FFFFFF" transform="translate(217,29)"/>
<path d="M0 0 C4 1 4 1 4 1 Z " fill="#FFFFFF" transform="translate(190,29)"/>
<path d="M0 0 C0.99 0.33 1.98 0.66 3 1 C2.01 1 1.02 1 0 1 C0 0.67 0 0.34 0 0 Z " fill="#FFFFFF" transform="translate(214,27)"/>
<path d="M0 0 C3 1 3 1 3 1 Z " fill="#FFFFFF" transform="translate(138,231)"/>
<path d="M0 0 C3 1 3 1 3 1 Z " fill="#FFFFFF" transform="translate(129,231)"/>
<path d="M0 0 C3 1 3 1 3 1 Z " fill="#FFFFFF" transform="translate(287,230)"/>
<path d="M0 0 C3 1 3 1 3 1 Z " fill="#FFFFFF" transform="translate(270,230)"/>
<path d="M0 0 C3 1 3 1 3 1 Z " fill="#FFFFFF" transform="translate(173,230)"/>
<path d="M0 0 C3 1 3 1 3 1 Z " fill="#FFFFFF" transform="translate(64,230)"/>
<path d="" fill="#FFFFFF" transform="translate(0,0)"/>
<path d="M0 0 C0.66 0.66 1.32 1.32 2 2 C1.34 2 0.68 2 0 2 C0 1.34 0 0.68 0 0 Z " fill="#FFFFFF" transform="translate(220,225)"/>
<path d="" fill="#FFFFFF" transform="translate(0,0)"/>
<path d="" fill="#FFFFFF" transform="translate(0,0)"/>
<path d="M0 0 C0.66 0.66 1.32 1.32 2 2 C1.34 2 0.68 2 0 2 C0 1.34 0 0.68 0 0 Z " fill="#FFFFFF" transform="translate(10,223)"/>
<path d="M0 0 C0.66 0 1.32 0 2 0 C1.67 0.66 1.34 1.32 1 2 C0.67 1.34 0.34 0.68 0 0 Z " fill="#FFFFFF" transform="translate(314,222)"/>
<path d="M0 0 C3 1 3 1 3 1 Z " fill="#FFFFFF" transform="translate(113,222)"/>
<path d="M0 0 C0.33 0.66 0.66 1.32 1 2 C0.34 1.67 -0.32 1.34 -1 1 C-0.67 0.67 -0.34 0.34 0 0 Z " fill="#FFFFFF" transform="translate(238,220)"/>
<path d="" fill="#FFFFFF" transform="translate(0,0)"/>
<path d="M0 0 C3 1 3 1 3 1 Z " fill="#FFFFFF" transform="translate(84,218)"/>
<path d="M0 0 C3 1 3 1 3 1 Z " fill="#FFFFFF" transform="translate(81,217)"/>
<path d="M0 0 C3 1 3 1 3 1 Z " fill="#FFFFFF" transform="translate(74,217)"/>
<path d="M0 0 C3 1 3 1 3 1 Z " fill="#FFFFFF" transform="translate(78,216)"/>
<path d="" fill="#FFFFFF" transform="translate(0,0)"/>
<path d="M0 0 C3 1 3 1 3 1 Z " fill="#FFFFFF" transform="translate(86,210)"/>
<path d="M0 0 C3 1 3 1 3 1 Z " fill="#FFFFFF" transform="translate(82,209)"/>
<path d="M0 0 C0.66 0 1.32 0 2 0 C1.67 0.66 1.34 1.32 1 2 C0.67 1.34 0.34 0.68 0 0 Z " fill="#FFFFFF" transform="translate(265,206)"/>
<path d="M0 0 C0.99 0.495 0.99 0.495 2 1 C1.01 1.495 1.01 1.495 0 2 C0 1.34 0 0.68 0 0 Z " fill="#FFFFFF" transform="translate(259,206)"/>
<path d="M0 0 C3 1 3 1 3 1 Z " fill="#FFFFFF" transform="translate(136,206)"/>
<path d="" fill="#FFFFFF" transform="translate(0,0)"/>
<path d="M0 0 C3 1 3 1 3 1 Z " fill="#FFFFFF" transform="translate(80,206)"/>
<path d="M0 0 C3 1 3 1 3 1 Z " fill="#FFFFFF" transform="translate(202,205)"/>
<path d="M0 0 C3 1 3 1 3 1 Z " fill="#FFFFFF" transform="translate(132,205)"/>
<path d="M0 0 C3 1 3 1 3 1 Z " fill="#FFFFFF" transform="translate(83,205)"/>
<path d="" fill="#FFFFFF" transform="translate(0,0)"/>
<path d="" fill="#FFFFFF" transform="translate(0,0)"/>
<path d="" fill="#FFFFFF" transform="translate(0,0)"/>
<path d="M0 0 C0.99 0.495 0.99 0.495 2 1 C1.01 1.495 1.01 1.495 0 2 C0 1.34 0 0.68 0 0 Z " fill="#FFFFFF" transform="translate(223,201)"/>
<path d="M0 0 C0.66 0 1.32 0 2 0 C1.67 0.66 1.34 1.32 1 2 C0.67 1.34 0.34 0.68 0 0 Z " fill="#FFFFFF" transform="translate(93,201)"/>
<path d="M0 0 C0.66 0.66 1.32 1.32 2 2 C1.34 2 0.68 2 0 2 C0 1.34 0 0.68 0 0 Z " fill="#FFFFFF" transform="translate(286,199)"/>
<path d="M0 0 C3 1 3 1 3 1 Z " fill="#FFFFFF" transform="translate(282,198)"/>
<path d="M0 0 C3 1 3 1 3 1 Z " fill="#FFFFFF" transform="translate(259,198)"/>
<path d="M0 0 C3 1 3 1 3 1 Z " fill="#FFFFFF" transform="translate(237,198)"/>
<path d="M0 0 C3 1 3 1 3 1 Z " fill="#FFFFFF" transform="translate(228,198)"/>
<path d="M0 0 C3 1 3 1 3 1 Z " fill="#FFFFFF" transform="translate(79,198)"/>
<path d="M0 0 C3 1 3 1 3 1 Z " fill="#FFFFFF" transform="translate(46,198)"/>
<path d="M0 0 C3 1 3 1 3 1 Z " fill="#FFFFFF" transform="translate(83,197)"/>
<path d="M0 0 C0.66 0 1.32 0 2 0 C1.67 0.66 1.34 1.32 1 2 C0.67 1.34 0.34 0.68 0 0 Z " fill="#FFFFFF" transform="translate(10,196)"/>
<path d="M0 0 C3 1 3 1 3 1 Z " fill="#FFFFFF" transform="translate(241,166)"/>
<path d="M0 0 C3 1 3 1 3 1 Z " fill="#FFFFFF" transform="translate(174,161)"/>
<path d="M0 0 C0.66 0.66 1.32 1.32 2 2 C1.34 2 0.68 2 0 2 C0 1.34 0 0.68 0 0 Z " fill="#FFFFFF" transform="translate(136,160)"/>
<path d="M0 0 C0.66 0.66 1.32 1.32 2 2 C1.34 2 0.68 2 0 2 C0 1.34 0 0.68 0 0 Z " fill="#FFFFFF" transform="translate(133,158)"/>
<path d="M0 0 C3 1 3 1 3 1 Z " fill="#FFFFFF" transform="translate(152,157)"/>
<path d="M0 0 C3 1 3 1 3 1 Z " fill="#FFFFFF" transform="translate(147,155)"/>
<path d="M0 0 C3 1 3 1 3 1 Z " fill="#FFFFFF" transform="translate(186,143)"/>
<path d="M0 0 C3 1 3 1 3 1 Z " fill="#FFFFFF" transform="translate(188,131)"/>
<path d="M0 0 C3 1 3 1 3 1 Z " fill="#FFFFFF" transform="translate(157,130)"/>
<path d="" fill="#FFFFFF" transform="translate(0,0)"/>
<path d="M0 0 C3 1 3 1 3 1 Z " fill="#FFFFFF" transform="translate(163,128)"/>
<path d="" fill="#FFFFFF" transform="translate(0,0)"/>
<path d="" fill="#FFFFFF" transform="translate(0,0)"/>
<path d="" fill="#FFFFFF" transform="translate(0,0)"/>
<path d="" fill="#FFFFFF" transform="translate(0,0)"/>
<path d="" fill="#FFFFFF" transform="translate(0,0)"/>
<path d="" fill="#FFFFFF" transform="translate(0,0)"/>
<path d="" fill="#FFFFFF" transform="translate(0,0)"/>
<path d="" fill="#FFFFFF" transform="translate(0,0)"/>
<path d="M0 0 C0.66 0.66 1.32 1.32 2 2 C1.34 2 0.68 2 0 2 C0 1.34 0 0.68 0 0 Z " fill="#FFFFFF" transform="translate(174,99)"/>
<path d="M0 0 C0.33 0.66 0.66 1.32 1 2 C0.34 1.67 -0.32 1.34 -1 1 C-0.67 0.67 -0.34 0.34 0 0 Z " fill="#FFFFFF" transform="translate(179,99)"/>
<path d="M0 0 C3 1 3 1 3 1 Z " fill="#FFFFFF" transform="translate(175,95)"/>
<path d="" fill="#FFFFFF" transform="translate(0,0)"/>
<path d="" fill="#FFFFFF" transform="translate(0,0)"/>
<path d="" fill="#FFFFFF" transform="translate(0,0)"/>
<path d="" fill="#FFFFFF" transform="translate(0,0)"/>
<path d="" fill="#FFFFFF" transform="translate(0,0)"/>
<path d="" fill="#FFFFFF" transform="translate(0,0)"/>
<path d="" fill="#FFFFFF" transform="translate(0,0)"/>
<path d="" fill="#FFFFFF" transform="translate(0,0)"/>
<path d="" fill="#FFFFFF" transform="translate(0,0)"/>
<path d="" fill="#FFFFFF" transform="translate(0,0)"/>
<path d="" fill="#FFFFFF" transform="translate(0,0)"/>
<path d="" fill="#FFFFFF" transform="translate(0,0)"/>
<path d="" fill="#FFFFFF" transform="translate(0,0)"/>
<path d="M0 0 C3 1 3 1 3 1 Z " fill="#FFFFFF" transform="translate(187,60)"/>
<path d="" fill="#FFFFFF" transform="translate(0,0)"/>
<path d="M0 0 C3 1 3 1 3 1 Z " fill="#FFFFFF" transform="translate(187,56)"/>
<path d="M0 0 C3 1 3 1 3 1 Z " fill="#FFFFFF" transform="translate(160,56)"/>
<path d="M0 0 C3 1 3 1 3 1 Z " fill="#FFFFFF" transform="translate(184,55)"/>
<path d="M0 0 C3 1 3 1 3 1 Z " fill="#FFFFFF" transform="translate(164,55)"/>
<path d="M0 0 C0.66 0.66 1.32 1.32 2 2 C1.34 2 0.68 2 0 2 C0 1.34 0 0.68 0 0 Z " fill="#FFFFFF" transform="translate(240,52)"/>
<path d="M0 0 C3 1 3 1 3 1 Z " fill="#FFFFFF" transform="translate(156,46)"/>
<path d="M0 0 C3 1 3 1 3 1 Z " fill="#FFFFFF" transform="translate(159,45)"/>
<path d="M0 0 C0.66 0 1.32 0 2 0 C1.67 0.66 1.34 1.32 1 2 C0.67 1.34 0.34 0.68 0 0 Z " fill="#FFFFFF" transform="translate(227,37)"/>
<path d="M0 0 C3 1 3 1 3 1 Z " fill="#FFFFFF" transform="translate(202,33)"/>
<path d="M0 0 C3 1 3 1 3 1 Z " fill="#FFFFFF" transform="translate(197,31)"/>
<path d="M0 0 C3 1 3 1 3 1 Z " fill="#FFFFFF" transform="translate(194,30)"/>
<path d="" fill="#FFFFFF" transform="translate(0,0)"/>
<path d="M0 0 C3 1 3 1 3 1 Z " fill="#FFFFFF" transform="translate(201,21)"/>
<path d="M0 0 C3 1 3 1 3 1 Z " fill="#FFFFFF" transform="translate(195,19)"/>
<path d="M0 0 C3 1 3 1 3 1 Z " fill="#FFFFFF" transform="translate(192,18)"/>
<path d="M0 0 C2 1 2 1 2 1 Z " fill="#FFFFFF" transform="translate(27,231)"/>
<path d="M0 0 C2 1 2 1 2 1 Z " fill="#FFFFFF" transform="translate(17,231)"/>
<path d="M0 0 C2 1 2 1 2 1 Z " fill="#FFFFFF" transform="translate(253,230)"/>
<path d="M0 0 C2 1 2 1 2 1 Z " fill="#FFFFFF" transform="translate(242,230)"/>
<path d="M0 0 C2 1 2 1 2 1 Z " fill="#FFFFFF" transform="translate(235,230)"/>
<path d="M0 0 C2 1 2 1 2 1 Z " fill="#FFFFFF" transform="translate(209,230)"/>
<path d="M0 0 C2 1 2 1 2 1 Z " fill="#FFFFFF" transform="translate(127,230)"/>
<path d="M0 0 C2 1 2 1 2 1 Z " fill="#FFFFFF" transform="translate(91,230)"/>
<path d="M0 0 C2 1 2 1 2 1 Z " fill="#FFFFFF" transform="translate(78,230)"/>
<path d="M0 0 C2 1 2 1 2 1 Z " fill="#FFFFFF" transform="translate(60,230)"/>
<path d="M0 0 C2 1 2 1 2 1 Z " fill="#FFFFFF" transform="translate(237,229)"/>
<path d="M0 0 C2 1 2 1 2 1 Z " fill="#FFFFFF" transform="translate(125,229)"/>
<path d="" fill="#FFFFFF" transform="translate(0,0)"/>
<path d="" fill="#FFFFFF" transform="translate(0,0)"/>
<path d="" fill="#FFFFFF" transform="translate(0,0)"/>
<path d="" fill="#FFFFFF" transform="translate(0,0)"/>
<path d="" fill="#FFFFFF" transform="translate(0,0)"/>
<path d="M0 0 C2 1 2 1 2 1 Z " fill="#FFFFFF" transform="translate(135,222)"/>
<path d="" fill="#FFFFFF" transform="translate(0,0)"/>
<path d="" fill="#FFFFFF" transform="translate(0,0)"/>
<path d="M0 0 C2 1 2 1 2 1 Z " fill="#FFFFFF" transform="translate(137,221)"/>
<path d="" fill="#FFFFFF" transform="translate(0,0)"/>
<path d="M0 0 C2 1 2 1 2 1 Z " fill="#FFFFFF" transform="translate(128,214)"/>
<path d="M0 0 C2 1 2 1 2 1 Z " fill="#FFFFFF" transform="translate(126,213)"/>
<path d="M0 0 C2 1 2 1 2 1 Z " fill="#FFFFFF" transform="translate(93,213)"/>
<path d="M0 0 C2 1 2 1 2 1 Z " fill="#FFFFFF" transform="translate(89,211)"/>
<path d="" fill="#FFFFFF" transform="translate(0,0)"/>
<path d="" fill="#FFFFFF" transform="translate(0,0)"/>
<path d="" fill="#FFFFFF" transform="translate(0,0)"/>
<path d="M0 0 C2 1 2 1 2 1 Z " fill="#FFFFFF" transform="translate(141,208)"/>
<path d="M0 0 C2 1 2 1 2 1 Z " fill="#FFFFFF" transform="translate(80,208)"/>
<path d="M0 0 C2 1 2 1 2 1 Z " fill="#FFFFFF" transform="translate(139,207)"/>
<path d="M0 0 C2 1 2 1 2 1 Z " fill="#FFFFFF" transform="translate(276,206)"/>
<path d="" fill="#FFFFFF" transform="translate(0,0)"/>
<path d="M0 0 C2 1 2 1 2 1 Z " fill="#FFFFFF" transform="translate(229,206)"/>
<path d="M0 0 C2 1 2 1 2 1 Z " fill="#FFFFFF" transform="translate(279,205)"/>
<path d="M0 0 C2 1 2 1 2 1 Z " fill="#FFFFFF" transform="translate(262,205)"/>
<path d="" fill="#FFFFFF" transform="translate(0,0)"/>
<path d="M0 0 C2 1 2 1 2 1 Z " fill="#FFFFFF" transform="translate(14,200)"/>
<path d="M0 0 C2 1 2 1 2 1 Z " fill="#FFFFFF" transform="translate(313,199)"/>
<path d="M0 0 C2 1 2 1 2 1 Z " fill="#FFFFFF" transform="translate(274,199)"/>
<path d="M0 0 C2 1 2 1 2 1 Z " fill="#FFFFFF" transform="translate(268,199)"/>
<path d="M0 0 C2 1 2 1 2 1 Z " fill="#FFFFFF" transform="translate(226,199)"/>
<path d="M0 0 C2 1 2 1 2 1 Z " fill="#FFFFFF" transform="translate(77,199)"/>
<path d="M0 0 C2 1 2 1 2 1 Z " fill="#FFFFFF" transform="translate(276,198)"/>
<path d="M0 0 C2 1 2 1 2 1 Z " fill="#FFFFFF" transform="translate(266,198)"/>
<path d="M0 0 C2 1 2 1 2 1 Z " fill="#FFFFFF" transform="translate(199,198)"/>
<path d="M0 0 C2 1 2 1 2 1 Z " fill="#FFFFFF" transform="translate(180,198)"/>
<path d="" fill="#FFFFFF" transform="translate(0,0)"/>
<path d="M0 0 C2 1 2 1 2 1 Z " fill="#FFFFFF" transform="translate(88,198)"/>
<path d="M0 0 C2 1 2 1 2 1 Z " fill="#FFFFFF" transform="translate(280,197)"/>
<path d="M0 0 C2 1 2 1 2 1 Z " fill="#FFFFFF" transform="translate(233,197)"/>
<path d="M0 0 C2 1 2 1 2 1 Z " fill="#FFFFFF" transform="translate(203,197)"/>
<path d="M0 0 C2 1 2 1 2 1 Z " fill="#FFFFFF" transform="translate(184,197)"/>
<path d="M0 0 C2 1 2 1 2 1 Z " fill="#FFFFFF" transform="translate(141,192)"/>
<path d="M0 0 C2 1 2 1 2 1 Z " fill="#FFFFFF" transform="translate(14,191)"/>
<path d="M0 0 C2 1 2 1 2 1 Z " fill="#FFFFFF" transform="translate(158,190)"/>
<path d="" fill="#FFFFFF" transform="translate(0,0)"/>
<path d="M0 0 C2 1 2 1 2 1 Z " fill="#FFFFFF" transform="translate(192,160)"/>
<path d="M0 0 C2 1 2 1 2 1 Z " fill="#FFFFFF" transform="translate(150,156)"/>
<path d="M0 0 C2 1 2 1 2 1 Z " fill="#FFFFFF" transform="translate(145,154)"/>
<path d="" fill="#FFFFFF" transform="translate(0,0)"/>
<path d="M0 0 C2 1 2 1 2 1 Z " fill="#FFFFFF" transform="translate(143,153)"/>
<path d="M0 0 C2 1 2 1 2 1 Z " fill="#FFFFFF" transform="translate(141,152)"/>
<path d="M0 0 C2 1 2 1 2 1 Z " fill="#FFFFFF" transform="translate(138,150)"/>
<path d="" fill="#FFFFFF" transform="translate(0,0)"/>
<path d="" fill="#FFFFFF" transform="translate(0,0)"/>
<path d="" fill="#FFFFFF" transform="translate(0,0)"/>
<path d="" fill="#FFFFFF" transform="translate(0,0)"/>
<path d="M0 0 C2 1 2 1 2 1 Z " fill="#FFFFFF" transform="translate(190,142)"/>
<path d="M0 0 C2 1 2 1 2 1 Z " fill="#FFFFFF" transform="translate(159,142)"/>
<path d="M0 0 C2 1 2 1 2 1 Z " fill="#FFFFFF" transform="translate(193,141)"/>
<path d="M0 0 C2 1 2 1 2 1 Z " fill="#FFFFFF" transform="translate(156,141)"/>
<path d="M0 0 C2 1 2 1 2 1 Z " fill="#FFFFFF" transform="translate(195,140)"/>
<path d="M0 0 C2 1 2 1 2 1 Z " fill="#FFFFFF" transform="translate(197,139)"/>
<path d="M0 0 C2 1 2 1 2 1 Z " fill="#FFFFFF" transform="translate(152,139)"/>
<path d="M0 0 C2 1 2 1 2 1 Z " fill="#FFFFFF" transform="translate(150,138)"/>
<path d="M0 0 C2 1 2 1 2 1 Z " fill="#FFFFFF" transform="translate(200,137)"/>
<path d="" fill="#FFFFFF" transform="translate(0,0)"/>
<path d="M0 0 C2 1 2 1 2 1 Z " fill="#FFFFFF" transform="translate(174,134)"/>
<path d="" fill="#FFFFFF" transform="translate(0,0)"/>
<path d="" fill="#FFFFFF" transform="translate(0,0)"/>
<path d="" fill="#FFFFFF" transform="translate(0,0)"/>
<path d="" fill="#FFFFFF" transform="translate(0,0)"/>
<path d="M0 0 C2 1 2 1 2 1 Z " fill="#FFFFFF" transform="translate(191,130)"/>
<path d="M0 0 C2 1 2 1 2 1 Z " fill="#FFFFFF" transform="translate(193,129)"/>
<path d="M0 0 C2 1 2 1 2 1 Z " fill="#FFFFFF" transform="translate(155,129)"/>
<path d="" fill="#FFFFFF" transform="translate(0,0)"/>
<path d="M0 0 C2 1 2 1 2 1 Z " fill="#FFFFFF" transform="translate(195,128)"/>
<path d="" fill="#FFFFFF" transform="translate(0,0)"/>
<path d="" fill="#FFFFFF" transform="translate(0,0)"/>
<path d="" fill="#FFFFFF" transform="translate(0,0)"/>
<path d="M0 0 C2 1 2 1 2 1 Z " fill="#FFFFFF" transform="translate(152,127)"/>
<path d="M0 0 C2 1 2 1 2 1 Z " fill="#FFFFFF" transform="translate(190,126)"/>
<path d="" fill="#FFFFFF" transform="translate(0,0)"/>
<path d="" fill="#FFFFFF" transform="translate(0,0)"/>
<path d="M0 0 C2 1 2 1 2 1 Z " fill="#FFFFFF" transform="translate(157,125)"/>
<path d="M0 0 C2 1 2 1 2 1 Z " fill="#FFFFFF" transform="translate(193,124)"/>
<path d="" fill="#FFFFFF" transform="translate(0,0)"/>
<path d="" fill="#FFFFFF" transform="translate(0,0)"/>
<path d="M0 0 C2 1 2 1 2 1 Z " fill="#FFFFFF" transform="translate(154,123)"/>
<path d="" fill="#FFFFFF" transform="translate(0,0)"/>
<path d="" fill="#FFFFFF" transform="translate(0,0)"/>
<path d="" fill="#FFFFFF" transform="translate(0,0)"/>
<path d="" fill="#FFFFFF" transform="translate(0,0)"/>
<path d="" fill="#FFFFFF" transform="translate(0,0)"/>
<path d="" fill="#FFFFFF" transform="translate(0,0)"/>
<path d="" fill="#FFFFFF" transform="translate(0,0)"/>
<path d="" fill="#FFFFFF" transform="translate(0,0)"/>
<path d="" fill="#FFFFFF" transform="translate(0,0)"/>
<path d="" fill="#FFFFFF" transform="translate(0,0)"/>
<path d="" fill="#FFFFFF" transform="translate(0,0)"/>
<path d="" fill="#FFFFFF" transform="translate(0,0)"/>
<path d="" fill="#FFFFFF" transform="translate(0,0)"/>
<path d="" fill="#FFFFFF" transform="translate(0,0)"/>
<path d="" fill="#FFFFFF" transform="translate(0,0)"/>
<path d="" fill="#FFFFFF" transform="translate(0,0)"/>
<path d="" fill="#FFFFFF" transform="translate(0,0)"/>
<path d="" fill="#FFFFFF" transform="translate(0,0)"/>
<path d="" fill="#FFFFFF" transform="translate(0,0)"/>
<path d="" fill="#FFFFFF" transform="translate(0,0)"/>
<path d="" fill="#FFFFFF" transform="translate(0,0)"/>
<path d="M0 0 C2 1 2 1 2 1 Z " fill="#FFFFFF" transform="translate(146,72)"/>
<path d="M0 0 C2 1 2 1 2 1 Z " fill="#FFFFFF" transform="translate(148,71)"/>
<path d="" fill="#FFFFFF" transform="translate(0,0)"/>
<path d="" fill="#FFFFFF" transform="translate(0,0)"/>
<path d="" fill="#FFFFFF" transform="translate(0,0)"/>
<path d="" fill="#FFFFFF" transform="translate(0,0)"/>
<path d="" fill="#FFFFFF" transform="translate(0,0)"/>
<path d="M0 0 C2 1 2 1 2 1 Z " fill="#FFFFFF" transform="translate(193,63)"/>
<path d="M0 0 C2 1 2 1 2 1 Z " fill="#FFFFFF" transform="translate(199,62)"/>
<path d="" fill="#FFFFFF" transform="translate(0,0)"/>
<path d="" fill="#FFFFFF" transform="translate(0,0)"/>
<path d="" fill="#FFFFFF" transform="translate(0,0)"/>
<path d="" fill="#FFFFFF" transform="translate(0,0)"/>
<path d="M0 0 C2 1 2 1 2 1 Z " fill="#FFFFFF" transform="translate(154,59)"/>
<path d="" fill="#FFFFFF" transform="translate(0,0)"/>
<path d="" fill="#FFFFFF" transform="translate(0,0)"/>
<path d="M0 0 C2 1 2 1 2 1 Z " fill="#FFFFFF" transform="translate(156,58)"/>
<path d="M0 0 C2 1 2 1 2 1 Z " fill="#FFFFFF" transform="translate(190,57)"/>
<path d="M0 0 C2 1 2 1 2 1 Z " fill="#FFFFFF" transform="translate(178,57)"/>
<path d="M0 0 C2 1 2 1 2 1 Z " fill="#FFFFFF" transform="translate(158,57)"/>
<path d="" fill="#FFFFFF" transform="translate(0,0)"/>
<path d="" fill="#FFFFFF" transform="translate(0,0)"/>
<path d="" fill="#FFFFFF" transform="translate(0,0)"/>
<path d="" fill="#FFFFFF" transform="translate(0,0)"/>
<path d="M0 0 C2 1 2 1 2 1 Z " fill="#FFFFFF" transform="translate(204,53)"/>
<path d="" fill="#FFFFFF" transform="translate(0,0)"/>
<path d="" fill="#FFFFFF" transform="translate(0,0)"/>
<path d="M0 0 C2 1 2 1 2 1 Z " fill="#FFFFFF" transform="translate(201,51)"/>
<path d="" fill="#FFFFFF" transform="translate(0,0)"/>
<path d="" fill="#FFFFFF" transform="translate(0,0)"/>
<path d="M0 0 C2 1 2 1 2 1 Z " fill="#FFFFFF" transform="translate(149,50)"/>
<path d="M0 0 C2 1 2 1 2 1 Z " fill="#FFFFFF" transform="translate(198,49)"/>
<path d="" fill="#FFFFFF" transform="translate(0,0)"/>
<path d="" fill="#FFFFFF" transform="translate(0,0)"/>
<path d="M0 0 C2 1 2 1 2 1 Z " fill="#FFFFFF" transform="translate(196,48)"/>
<path d="M0 0 C2 1 2 1 2 1 Z " fill="#FFFFFF" transform="translate(152,48)"/>
<path d="M0 0 C2 1 2 1 2 1 Z " fill="#FFFFFF" transform="translate(194,47)"/>
<path d="M0 0 C2 1 2 1 2 1 Z " fill="#FFFFFF" transform="translate(154,47)"/>
<path d="" fill="#FFFFFF" transform="translate(0,0)"/>
<path d="" fill="#FFFFFF" transform="translate(0,0)"/>
<path d="" fill="#FFFFFF" transform="translate(0,0)"/>
<path d="" fill="#FFFFFF" transform="translate(0,0)"/>
<path d="" fill="#FFFFFF" transform="translate(0,0)"/>
<path d="" fill="#FFFFFF" transform="translate(0,0)"/>
<path d="M0 0 C2 1 2 1 2 1 Z " fill="#FFFFFF" transform="translate(210,37)"/>
<path d="M0 0 C2 1 2 1 2 1 Z " fill="#FFFFFF" transform="translate(205,34)"/>
<path d="M0 0 C2 1 2 1 2 1 Z " fill="#FFFFFF" transform="translate(200,32)"/>
<path d="M0 0 C2 1 2 1 2 1 Z " fill="#FFFFFF" transform="translate(212,26)"/>
<path d="M0 0 C2 1 2 1 2 1 Z " fill="#FFFFFF" transform="translate(210,25)"/>
<path d="M0 0 C2 1 2 1 2 1 Z " fill="#FFFFFF" transform="translate(208,24)"/>
<path d="M0 0 C2 1 2 1 2 1 Z " fill="#FFFFFF" transform="translate(206,23)"/>
<path d="M0 0 C2 1 2 1 2 1 Z " fill="#FFFFFF" transform="translate(204,22)"/>
<path d="M0 0 C2 1 2 1 2 1 Z " fill="#FFFFFF" transform="translate(107,21)"/>
<path d="M0 0 C2 1 2 1 2 1 Z " fill="#FFFFFF" transform="translate(199,20)"/>
<path d="" fill="#FFFFFF" transform="translate(0,0)"/>
<path d="" fill="#FFFFFF" transform="translate(0,0)"/>
<path d="" fill="#FFFFFF" transform="translate(0,0)"/>
<path d="" fill="#FFFFFF" transform="translate(0,0)"/>
<path d="" fill="#FFFFFF" transform="translate(0,0)"/>
<path d="" fill="#FFFFFF" transform="translate(0,0)"/>
<path d="" fill="#FFFFFF" transform="translate(0,0)"/>
<path d="" fill="#FFFFFF" transform="translate(0,0)"/>
<path d="" fill="#FFFFFF" transform="translate(0,0)"/>
<path d="" fill="#FFFFFF" transform="translate(0,0)"/>
<path d="" fill="#FFFFFF" transform="translate(0,0)"/>
<path d="" fill="#FFFFFF" transform="translate(0,0)"/>
<path d="" fill="#FFFFFF" transform="translate(0,0)"/>
<path d="" fill="#FFFFFF" transform="translate(0,0)"/>
<path d="" fill="#FFFFFF" transform="translate(0,0)"/>
<path d="" fill="#FFFFFF" transform="translate(0,0)"/>
<path d="" fill="#FFFFFF" transform="translate(0,0)"/>
<path d="" fill="#FFFFFF" transform="translate(0,0)"/>
<path d="" fill="#FFFFFF" transform="translate(0,0)"/>
<path d="" fill="#FFFFFF" transform="translate(0,0)"/>
<path d="" fill="#FFFFFF" transform="translate(0,0)"/>
<path d="" fill="#FFFFFF" transform="translate(0,0)"/>
<path d="" fill="#FFFFFF" transform="translate(0,0)"/>
<path d="" fill="#FFFFFF" transform="translate(0,0)"/>
<path d="" fill="#FFFFFF" transform="translate(0,0)"/>
<path d="" fill="#FFFFFF" transform="translate(0,0)"/>
<path d="" fill="#FFFFFF" transform="translate(0,0)"/>
<path d="" fill="#FFFFFF" transform="translate(0,0)"/>
<path d="" fill="#FFFFFF" transform="translate(0,0)"/>
<path d="" fill="#FFFFFF" transform="translate(0,0)"/>
<path d="" fill="#FFFFFF" transform="translate(0,0)"/>
<path d="" fill="#FFFFFF" transform="translate(0,0)"/>
<path d="" fill="#FFFFFF" transform="translate(0,0)"/>
<path d="" fill="#FFFFFF" transform="translate(0,0)"/>
<path d="" fill="#FFFFFF" transform="translate(0,0)"/>
<path d="" fill="#FFFFFF" transform="translate(0,0)"/>
<path d="" fill="#FFFFFF" transform="translate(0,0)"/>
<path d="" fill="#FFFFFF" transform="translate(0,0)"/>
<path d="" fill="#FFFFFF" transform="translate(0,0)"/>
<path d="" fill="#FFFFFF" transform="translate(0,0)"/>
<path d="" fill="#FFFFFF" transform="translate(0,0)"/>
<path d="" fill="#FFFFFF" transform="translate(0,0)"/>
<path d="" fill="#FFFFFF" transform="translate(0,0)"/>
<path d="" fill="#FFFFFF" transform="translate(0,0)"/>
<path d="" fill="#FFFFFF" transform="translate(0,0)"/>
<path d="" fill="#FFFFFF" transform="translate(0,0)"/>
<path d="" fill="#FFFFFF" transform="translate(0,0)"/>
<path d="" fill="#FFFFFF" transform="translate(0,0)"/>
<path d="" fill="#FFFFFF" transform="translate(0,0)"/>
<path d="" fill="#FFFFFF" transform="translate(0,0)"/>
<path d="" fill="#FFFFFF" transform="translate(0,0)"/>
<path d="" fill="#FFFFFF" transform="translate(0,0)"/>
<path d="" fill="#FFFFFF" transform="translate(0,0)"/>
<path d="" fill="#FFFFFF" transform="translate(0,0)"/>
<path d="" fill="#FFFFFF" transform="translate(0,0)"/>
<path d="" fill="#FFFFFF" transform="translate(0,0)"/>
<path d="" fill="#FFFFFF" transform="translate(0,0)"/>
<path d="" fill="#FFFFFF" transform="translate(0,0)"/>
<path d="" fill="#FFFFFF" transform="translate(0,0)"/>
<path d="" fill="#FFFFFF" transform="translate(0,0)"/>
<path d="" fill="#FFFFFF" transform="translate(0,0)"/>
<path d="" fill="#FFFFFF" transform="translate(0,0)"/>
<path d="" fill="#FFFFFF" transform="translate(0,0)"/>
<path d="" fill="#FFFFFF" transform="translate(0,0)"/>
<path d="" fill="#FFFFFF" transform="translate(0,0)"/>
<path d="" fill="#FFFFFF" transform="translate(0,0)"/>
<path d="" fill="#FFFFFF" transform="translate(0,0)"/>
<path d="" fill="#FFFFFF" transform="translate(0,0)"/>
<path d="" fill="#FFFFFF" transform="translate(0,0)"/>
<path d="" fill="#FFFFFF" transform="translate(0,0)"/>
<path d="" fill="#FFFFFF" transform="translate(0,0)"/>
<path d="" fill="#FFFFFF" transform="translate(0,0)"/>
<path d="" fill="#FFFFFF" transform="translate(0,0)"/>
<path d="" fill="#FFFFFF" transform="translate(0,0)"/>
<path d="" fill="#FFFFFF" transform="translate(0,0)"/>
<path d="" fill="#FFFFFF" transform="translate(0,0)"/>
<path d="" fill="#FFFFFF" transform="translate(0,0)"/>
<path d="" fill="#FFFFFF" transform="translate(0,0)"/>
<path d="" fill="#FFFFFF" transform="translate(0,0)"/>
<path d="" fill="#FFFFFF" transform="translate(0,0)"/>
<path d="" fill="#FFFFFF" transform="translate(0,0)"/>
<path d="" fill="#FFFFFF" transform="translate(0,0)"/>
<path d="" fill="#FFFFFF" transform="translate(0,0)"/>
<path d="" fill="#FFFFFF" transform="translate(0,0)"/>
<path d="" fill="#FFFFFF" transform="translate(0,0)"/>
<path d="" fill="#FFFFFF" transform="translate(0,0)"/>
<path d="" fill="#FFFFFF" transform="translate(0,0)"/>
<path d="" fill="#FFFFFF" transform="translate(0,0)"/>
<path d="" fill="#FFFFFF" transform="translate(0,0)"/>
<path d="" fill="#FFFFFF" transform="translate(0,0)"/>
<path d="" fill="#FFFFFF" transform="translate(0,0)"/>
<path d="" fill="#FFFFFF" transform="translate(0,0)"/>
<path d="" fill="#FFFFFF" transform="translate(0,0)"/>
<path d="" fill="#FFFFFF" transform="translate(0,0)"/>
<path d="" fill="#FFFFFF" transform="translate(0,0)"/>
<path d="" fill="#FFFFFF" transform="translate(0,0)"/>
<path d="" fill="#FFFFFF" transform="translate(0,0)"/>
<path d="" fill="#FFFFFF" transform="translate(0,0)"/>
<path d="" fill="#FFFFFF" transform="translate(0,0)"/>
<path d="" fill="#FFFFFF" transform="translate(0,0)"/>
<path d="" fill="#FFFFFF" transform="translate(0,0)"/>
<path d="" fill="#FFFFFF" transform="translate(0,0)"/>
<path d="" fill="#FFFFFF" transform="translate(0,0)"/>
<path d="" fill="#FFFFFF" transform="translate(0,0)"/>
<path d="" fill="#FFFFFF" transform="translate(0,0)"/>
<path d="" fill="#FFFFFF" transform="translate(0,0)"/>
<path d="" fill="#FFFFFF" transform="translate(0,0)"/>
<path d="" fill="#FFFFFF" transform="translate(0,0)"/>
<path d="" fill="#FFFFFF" transform="translate(0,0)"/>
<path d="" fill="#FFFFFF" transform="translate(0,0)"/>
<path d="" fill="#FFFFFF" transform="translate(0,0)"/>
<path d="" fill="#FFFFFF" transform="translate(0,0)"/>
<path d="" fill="#FFFFFF" transform="translate(0,0)"/>
<path d="" fill="#FFFFFF" transform="translate(0,0)"/>
<path d="" fill="#FFFFFF" transform="translate(0,0)"/>
<path d="" fill="#FFFFFF" transform="translate(0,0)"/>
<path d="" fill="#FFFFFF" transform="translate(0,0)"/>
<path d="" fill="#FFFFFF" transform="translate(0,0)"/>
<path d="" fill="#FFFFFF" transform="translate(0,0)"/>
<path d="" fill="#FFFFFF" transform="translate(0,0)"/>
<path d="" fill="#FFFFFF" transform="translate(0,0)"/>
<path d="" fill="#FFFFFF" transform="translate(0,0)"/>
<path d="" fill="#FFFFFF" transform="translate(0,0)"/>
<path d="" fill="#FFFFFF" transform="translate(0,0)"/>
<path d="" fill="#FFFFFF" transform="translate(0,0)"/>
<path d="" fill="#FFFFFF" transform="translate(0,0)"/>
<path d="" fill="#FFFFFF" transform="translate(0,0)"/>
<path d="" fill="#FFFFFF" transform="translate(0,0)"/>
<path d="" fill="#FFFFFF" transform="translate(0,0)"/>
<path d="" fill="#FFFFFF" transform="translate(0,0)"/>
<path d="" fill="#FFFFFF" transform="translate(0,0)"/>
<path d="" fill="#FFFFFF" transform="translate(0,0)"/>
<path d="" fill="#FFFFFF" transform="translate(0,0)"/>
<path d="" fill="#FFFFFF" transform="translate(0,0)"/>
<path d="" fill="#FFFFFF" transform="translate(0,0)"/>
<path d="" fill="#FFFFFF" transform="translate(0,0)"/>
<path d="" fill="#FFFFFF" transform="translate(0,0)"/>
<path d="" fill="#FFFFFF" transform="translate(0,0)"/>
<path d="" fill="#FFFFFF" transform="translate(0,0)"/>
<path d="" fill="#FFFFFF" transform="translate(0,0)"/>
<path d="" fill="#FFFFFF" transform="translate(0,0)"/>
<path d="" fill="#FFFFFF" transform="translate(0,0)"/>
<path d="" fill="#FFFFFF" transform="translate(0,0)"/>
<path d="" fill="#FFFFFF" transform="translate(0,0)"/>
<path d="" fill="#FFFFFF" transform="translate(0,0)"/>
<path d="" fill="#FFFFFF" transform="translate(0,0)"/>
<path d="" fill="#FFFFFF" transform="translate(0,0)"/>
<path d="" fill="#FFFFFF" transform="translate(0,0)"/>
<path d="" fill="#FFFFFF" transform="translate(0,0)"/>
<path d="" fill="#FFFFFF" transform="translate(0,0)"/>
<path d="" fill="#FFFFFF" transform="translate(0,0)"/>
<path d="" fill="#FFFFFF" transform="translate(0,0)"/>
<path d="" fill="#FFFFFF" transform="translate(0,0)"/>
<path d="" fill="#FFFFFF" transform="translate(0,0)"/>
<path d="" fill="#FFFFFF" transform="translate(0,0)"/>
<path d="" fill="#FFFFFF" transform="translate(0,0)"/>
<path d="" fill="#FFFFFF" transform="translate(0,0)"/>
<path d="" fill="#FFFFFF" transform="translate(0,0)"/>
<path d="" fill="#FFFFFF" transform="translate(0,0)"/>
<path d="" fill="#FFFFFF" transform="translate(0,0)"/>
<path d="" fill="#FFFFFF" transform="translate(0,0)"/>
<path d="" fill="#FFFFFF" transform="translate(0,0)"/>
<path d="" fill="#FFFFFF" transform="translate(0,0)"/>
<path d="" fill="#FFFFFF" transform="translate(0,0)"/>
<path d="" fill="#FFFFFF" transform="translate(0,0)"/>
<path d="" fill="#FFFFFF" transform="translate(0,0)"/>
<path d="" fill="#FFFFFF" transform="translate(0,0)"/>
<path d="" fill="#FFFFFF" transform="translate(0,0)"/>
<path d="" fill="#FFFFFF" transform="translate(0,0)"/>
<path d="" fill="#FFFFFF" transform="translate(0,0)"/>
<path d="" fill="#FFFFFF" transform="translate(0,0)"/>
<path d="" fill="#FFFFFF" transform="translate(0,0)"/>
<path d="" fill="#FFFFFF" transform="translate(0,0)"/>
<path d="" fill="#FFFFFF" transform="translate(0,0)"/>
<path d="" fill="#FFFFFF" transform="translate(0,0)"/>
<path d="" fill="#FFFFFF" transform="translate(0,0)"/>
<path d="" fill="#FFFFFF" transform="translate(0,0)"/>
<path d="" fill="#FFFFFF" transform="translate(0,0)"/>
<path d="" fill="#FFFFFF" transform="translate(0,0)"/>
<path d="" fill="#FFFFFF" transform="translate(0,0)"/>
<path d="" fill="#FFFFFF" transform="translate(0,0)"/>
<path d="" fill="#FFFFFF" transform="translate(0,0)"/>
<path d="" fill="#FFFFFF" transform="translate(0,0)"/>
<path d="" fill="#FFFFFF" transform="translate(0,0)"/>
<path d="" fill="#FFFFFF" transform="translate(0,0)"/>
<path d="" fill="#FFFFFF" transform="translate(0,0)"/>
<path d="" fill="#FFFFFF" transform="translate(0,0)"/>
<path d="" fill="#FFFFFF" transform="translate(0,0)"/>
<path d="" fill="#FFFFFF" transform="translate(0,0)"/>
<path d="" fill="#FFFFFF" transform="translate(0,0)"/>
<path d="" fill="#FFFFFF" transform="translate(0,0)"/>
<path d="" fill="#FFFFFF" transform="translate(0,0)"/>
<path d="" fill="#FFFFFF" transform="translate(0,0)"/>
<path d="" fill="#FFFFFF" transform="translate(0,0)"/>
<path d="" fill="#FFFFFF" transform="translate(0,0)"/>
<path d="" fill="#FFFFFF" transform="translate(0,0)"/>
<path d="" fill="#FFFFFF" transform="translate(0,0)"/>
<path d="" fill="#FFFFFF" transform="translate(0,0)"/>
<path d="" fill="#FFFFFF" transform="translate(0,0)"/>
<path d="" fill="#FFFFFF" transform="translate(0,0)"/>
<path d="" fill="#FFFFFF" transform="translate(0,0)"/>
<path d="" fill="#FFFFFF" transform="translate(0,0)"/>
<path d="" fill="#FFFFFF" transform="translate(0,0)"/>
<path d="" fill="#FFFFFF" transform="translate(0,0)"/>
<path d="" fill="#FFFFFF" transform="translate(0,0)"/>
<path d="" fill="#FFFFFF" transform="translate(0,0)"/>
<path d="" fill="#FFFFFF" transform="translate(0,0)"/>
<path d="" fill="#FFFFFF" transform="translate(0,0)"/>
<path d="" fill="#FFFFFF" transform="translate(0,0)"/>
<path d="" fill="#FFFFFF" transform="translate(0,0)"/>
<path d="" fill="#FFFFFF" transform="translate(0,0)"/>
<path d="" fill="#FFFFFF" transform="translate(0,0)"/>
<path d="" fill="#FFFFFF" transform="translate(0,0)"/>
<path d="" fill="#FFFFFF" transform="translate(0,0)"/>
<path d="" fill="#FFFFFF" transform="translate(0,0)"/>
<path d="" fill="#FFFFFF" transform="translate(0,0)"/>
<path d="" fill="#FFFFFF" transform="translate(0,0)"/>
<path d="" fill="#FFFFFF" transform="translate(0,0)"/>
<path d="" fill="#FFFFFF" transform="translate(0,0)"/>
<path d="" fill="#FFFFFF" transform="translate(0,0)"/>
<path d="" fill="#FFFFFF" transform="translate(0,0)"/>
<path d="" fill="#FFFFFF" transform="translate(0,0)"/>
<path d="" fill="#FFFFFF" transform="translate(0,0)"/>
<path d="" fill="#FFFFFF" transform="translate(0,0)"/>
<path d="" fill="#FFFFFF" transform="translate(0,0)"/>
<path d="" fill="#FFFFFF" transform="translate(0,0)"/>
<path d="" fill="#FFFFFF" transform="translate(0,0)"/>
<path d="" fill="#FFFFFF" transform="translate(0,0)"/>
<path d="" fill="#FFFFFF" transform="translate(0,0)"/>
<path d="" fill="#FFFFFF" transform="translate(0,0)"/>
<path d="" fill="#FFFFFF" transform="translate(0,0)"/>
<path d="" fill="#FFFFFF" transform="translate(0,0)"/>
<path d="" fill="#FFFFFF" transform="translate(0,0)"/>
<path d="" fill="#FFFFFF" transform="translate(0,0)"/>
<path d="" fill="#FFFFFF" transform="translate(0,0)"/>
<path d="" fill="#FFFFFF" transform="translate(0,0)"/>
<path d="" fill="#FFFFFF" transform="translate(0,0)"/>
<path d="" fill="#FFFFFF" transform="translate(0,0)"/>
<path d="" fill="#FFFFFF" transform="translate(0,0)"/>
<path d="" fill="#FFFFFF" transform="translate(0,0)"/>
<path d="" fill="#FFFFFF" transform="translate(0,0)"/>
<path d="" fill="#FFFFFF" transform="translate(0,0)"/>
</svg>
